<?xml version="1.0" standalone="no"?>
<!DOCTYPE svg PUBLIC "-//W3C//DTD SVG 20010904//EN"
 "http://www.w3.org/TR/2001/REC-SVG-20010904/DTD/svg10.dtd">
<svg version="1.0" xmlns="http://www.w3.org/2000/svg"
 width="1024.000000pt" height="1024.000000pt" viewBox="0 0 1024.000000 1024.000000"
 preserveAspectRatio="xMidYMid meet">

<g transform="translate(0.000000,1024.000000) scale(0.100000,-0.100000)"
fill="#000000" stroke="none">
<path d="M0 5120 l0 -5120 3030 0 c1667 0 3030 3 3030 8 0 11 -88 152 -116
185 -13 16 -24 35 -24 42 0 7 -4 15 -8 17 -4 2 -37 41 -72 88 -36 47 -69 90
-75 97 -5 7 -14 18 -20 25 -5 7 -36 45 -67 84 -32 39 -58 74 -58 78 0 4 -5 12
-10 19 -6 7 -34 44 -63 82 -28 39 -58 74 -64 78 -7 4 -13 14 -13 21 0 8 -13
28 -30 46 -16 18 -30 36 -30 41 0 11 -102 157 -127 182 -10 11 -17 23 -16 27
1 5 -15 24 -37 44 -22 20 -40 41 -40 47 0 6 -14 24 -30 41 -17 16 -28 34 -24
39 3 5 -2 9 -12 9 -18 0 -39 22 -54 58 -6 13 -15 20 -21 17 -5 -4 -18 3 -29
15 -10 12 -21 21 -24 21 -3 -1 -14 -1 -23 -1 -15 0 -16 2 -3 10 12 8 12 10 -3
16 -9 3 -23 1 -31 -5 -7 -6 -17 -7 -22 -3 -4 4 -3 0 4 -10 15 -19 2 -31 -25
-22 -16 6 -16 5 2 -9 14 -12 16 -16 6 -17 -8 0 -11 -3 -8 -7 4 -3 2 -12 -5
-20 -6 -7 -8 -16 -4 -20 3 -3 -1 -15 -11 -25 -11 -13 -12 -18 -3 -18 10 0 9
-4 -1 -17 -8 -9 -13 -19 -12 -22 1 -3 -5 -5 -13 -3 -8 2 -14 -2 -14 -8 0 -6 4
-9 8 -6 4 2 14 1 22 -5 12 -7 12 -9 1 -9 -7 0 -11 -6 -7 -15 3 -9 0 -15 -9
-15 -8 0 -21 -13 -29 -29 -17 -31 -42 -47 -49 -28 -3 9 -10 9 -32 -1 -25 -12
-27 -11 -15 2 11 14 9 16 -9 16 -11 0 -21 3 -21 8 0 4 11 7 24 7 13 0 21 -4
18 -10 -3 -5 2 -3 12 5 16 13 20 12 32 -5 13 -17 16 -18 24 -5 14 22 12 34 -4
21 -11 -9 -16 -9 -21 -1 -4 7 -20 10 -36 8 -15 -3 -26 -1 -24 3 3 4 -2 12 -10
19 -8 7 -15 20 -15 30 0 9 -3 20 -7 24 -12 12 -12 140 -1 154 6 7 8 15 5 19
-4 3 -2 12 4 20 6 7 8 13 5 13 -4 0 0 10 8 22 9 12 16 31 16 40 0 10 6 28 13
40 18 31 148 158 162 158 4 0 29 22 55 50 26 27 52 50 58 50 6 0 12 4 14 9 2
5 30 33 63 61 111 95 218 194 318 293 54 53 103 95 108 92 5 -4 9 -2 9 4 0 5
24 12 53 16 41 5 62 2 100 -14 26 -11 47 -25 47 -31 0 -5 5 -10 11 -10 6 0 17
-6 24 -13 8 -6 37 -32 65 -57 28 -25 176 -169 328 -321 253 -252 337 -332 448
-428 121 -103 213 -191 439 -416 139 -137 260 -257 271 -266 10 -9 56 -55 101
-103 46 -47 85 -86 86 -86 7 0 336 -336 391 -398 30 -35 58 -72 61 -83 4 -10
10 -19 15 -19 5 0 12 -9 15 -20 6 -20 15 -20 1136 -20 l1129 0 0 5120 0 5120
-5120 0 -5120 0 0 -5120z m2040 4894 c0 -8 -5 -12 -10 -9 -6 4 -8 11 -5 16 9
14 15 11 15 -7z m26 -10 c-16 -16 -12 -39 5 -29 14 9 11 -19 -3 -34 -10 -11
-10 -13 0 -7 6 4 12 3 12 -3 0 -7 8 -7 24 -1 23 8 24 7 20 -17 -3 -15 -7 -30
-10 -34 -2 -4 4 -10 15 -14 11 -3 22 -13 25 -21 3 -8 2 -12 -4 -9 -19 12 -32
-6 -17 -23 8 -10 18 -24 22 -32 8 -13 6 -13 -8 -1 -16 12 -16 10 -11 -33 5
-31 3 -46 -5 -46 -15 0 -14 -40 2 -41 10 0 10 -2 0 -6 -7 -2 -13 -14 -13 -24
0 -11 -4 -17 -10 -14 -6 4 -7 -2 -1 -18 5 -14 6 -30 0 -38 -5 -8 -8 -54 -8
-104 0 -49 -1 -105 -3 -122 -2 -18 1 -34 6 -37 7 -2 7 -8 -1 -17 -11 -11 -13
-11 -14 2 0 9 -3 7 -8 -5 -11 -29 -47 -26 -83 6 -17 15 -35 28 -39 28 -11 0
-76 102 -81 126 -2 10 -13 23 -24 29 -14 7 -20 18 -18 32 2 11 -3 26 -11 33
-8 7 -12 16 -9 21 3 5 -2 9 -10 9 -11 0 -15 8 -14 25 1 14 7 25 12 25 5 0 0 8
-10 18 -22 19 -25 49 -6 44 10 -2 10 3 1 19 -9 17 -8 20 2 14 9 -6 11 -2 7 13
-4 12 -2 20 3 16 5 -3 9 -1 9 4 0 6 -7 12 -15 16 -8 3 -15 16 -14 28 l0 23 11
-22 c16 -33 28 -28 26 10 -2 23 1 32 12 32 28 1 42 15 29 31 -9 11 -9 14 0 14
7 0 9 5 5 11 -4 8 0 9 15 4 12 -4 21 -2 21 4 0 6 -7 11 -15 11 -8 0 -15 8 -14
18 0 10 3 12 6 5 2 -7 10 -13 15 -13 6 0 9 3 5 6 -7 8 12 28 35 37 10 3 15 12
12 21 -3 8 -1 17 5 21 6 3 11 2 11 -4 0 -5 16 -8 38 -5 20 2 31 2 25 -2 -20
-9 -15 -23 7 -21 12 1 18 7 16 14 -8 19 4 43 21 43 12 0 12 -2 -1 -16z m54 2
c0 -3 -4 -8 -10 -11 -5 -3 -10 -1 -10 4 0 6 5 11 10 11 6 0 10 -2 10 -4z
m-213 -32 c-3 -3 -12 -4 -19 -1 -8 3 -5 6 6 6 11 1 17 -2 13 -5z m916 -83 c26
-12 47 -26 47 -31 0 -6 3 -9 8 -8 10 3 142 -93 142 -104 0 -4 4 -8 10 -8 5 0
18 -7 27 -14 10 -8 43 -33 73 -55 30 -22 62 -46 70 -53 8 -7 44 -37 80 -66 85
-70 154 -129 199 -170 20 -18 55 -46 78 -63 23 -16 43 -33 45 -37 1 -5 19 -19
39 -33 41 -27 92 -67 153 -119 80 -69 134 -110 145 -110 6 0 11 -3 11 -7 0 -5
17 -19 38 -33 38 -26 55 -39 110 -90 17 -16 32 -27 32 -24 0 3 17 -11 38 -30
20 -20 45 -39 55 -42 9 -3 17 -12 17 -20 0 -8 6 -14 13 -14 8 0 24 -11 37 -25
13 -14 28 -25 33 -25 8 0 92 -63 112 -85 6 -6 26 -22 45 -35 19 -13 51 -37 71
-54 68 -59 86 -73 97 -77 5 -2 27 -19 48 -36 22 -18 75 -61 119 -95 44 -35 92
-74 106 -88 14 -14 61 -54 104 -90 42 -36 87 -73 99 -83 11 -10 37 -31 56 -45
127 -99 150 -139 124 -217 -14 -41 -35 -61 -159 -162 -114 -93 -198 -163 -230
-191 -16 -15 -66 -56 -110 -92 -44 -36 -91 -75 -105 -87 -14 -13 -28 -23 -31
-23 -3 0 -22 -15 -42 -32 -54 -49 -65 -58 -74 -58 -9 -1 -103 -86 -103 -94 0
-3 482 -6 1071 -6 907 0 1070 2 1060 14 -6 7 -12 47 -14 87 -1 41 -6 80 -11
87 -4 7 -5 29 -2 48 6 27 3 36 -10 41 -15 5 -15 7 0 15 11 6 23 4 38 -6 15
-11 18 -16 8 -16 -11 -1 -11 -3 3 -11 9 -6 15 -14 12 -20 -4 -5 1 -9 9 -9 9 0
13 -7 11 -20 -2 -11 4 -28 14 -38 18 -16 53 -130 48 -155 -1 -9 31 -13 118
-17 l120 -5 -125 -5 c-207 -9 -3427 -9 -3540 -1 -73 6 22 8 318 9 273 1 422 6
422 12 0 6 -6 10 -13 10 -8 0 -27 13 -43 30 -16 16 -34 30 -41 30 -12 0 -233
210 -233 222 0 5 -29 38 -102 115 -53 56 -135 133 -141 133 -4 0 -20 14 -35
31 -76 85 -112 121 -112 114 0 -4 -16 8 -35 28 -19 20 -35 34 -35 31 0 -3 -6
1 -13 8 -8 7 -28 24 -45 38 -18 14 -32 30 -32 35 0 13 -36 45 -51 45 -5 0 -7
4 -4 10 3 5 -10 26 -29 46 -20 21 -36 41 -36 45 0 18 -82 123 -124 158 -10 9
-30 29 -45 45 -28 31 -57 60 -120 119 -23 21 -41 41 -41 45 0 4 -17 23 -38 44
-20 20 -49 51 -64 70 -15 18 -39 47 -53 63 -14 17 -28 38 -31 48 -3 9 -9 17
-13 17 -5 0 -14 14 -21 30 -7 17 -17 30 -23 30 -6 0 -7 3 -4 6 3 4 -2 18 -13
31 -10 13 -16 31 -13 40 4 10 2 14 -4 10 -23 -15 -28 172 -5 195 7 7 12 20 12
29 0 10 5 21 10 24 6 3 8 16 4 29 -3 14 2 28 15 40 16 14 18 23 10 37 -7 14
-5 27 6 50 11 20 17 61 18 120 1 49 5 89 8 89 4 0 9 20 11 45 2 25 -1 45 -6
45 -6 0 -1 7 10 15 10 8 15 15 11 15 -4 0 -3 10 4 21 8 16 8 20 -1 14 -9 -6
-9 -2 0 14 6 12 16 19 21 15 7 -4 6 2 -1 15 -10 19 -8 25 8 39 10 9 22 30 26
45 3 15 11 25 16 22 6 -3 7 1 4 10 -4 8 2 27 12 43 10 15 19 33 20 41 2 7 7
18 13 24 6 6 11 19 11 29 0 13 8 18 26 18 24 0 25 2 13 17 -8 9 -9 14 -4 11 6
-3 19 -2 30 2 31 11 76 4 128 -19z m-673 5 c0 -3 -4 -8 -10 -11 -5 -3 -10 -1
-10 4 0 6 5 11 10 11 6 0 10 -2 10 -4z m-315 -36 c3 -5 -1 -10 -10 -10 -9 0
-13 5 -10 10 3 6 8 10 10 10 2 0 7 -4 10 -10z m232 -626 c-3 -3 -12 -4 -19 -1
-8 3 -5 6 6 6 11 1 17 -2 13 -5z m5193 -2180 c-73 -7 -270 -9 -270 -2 0 3 69
6 153 6 83 -1 136 -2 117 -4z m83 -1 c-7 -2 -19 -2 -25 0 -7 3 -2 5 12 5 14 0
19 -2 13 -5z m1681 -37 c4 -19 13 -39 21 -46 7 -6 14 -19 15 -28 7 -70 -3
-354 -14 -412 -3 -14 -16 -56 -30 -95 -26 -74 -34 -116 -41 -205 -13 -167 -17
-183 -65 -275 -42 -81 -51 -121 -25 -111 10 4 15 -1 15 -14 0 -11 5 -20 10
-20 6 0 10 -7 10 -15 0 -9 7 -18 15 -21 8 -4 12 -10 9 -15 -3 -5 -1 -9 4 -9 5
0 12 -13 15 -30 4 -16 15 -37 26 -47 11 -9 18 -20 15 -25 -3 -4 3 -8 14 -8 21
0 42 38 42 75 0 13 5 27 11 30 6 4 8 14 5 22 -3 8 -1 11 4 8 6 -3 7 1 4 9 -6
16 -29 17 -53 2 -11 -7 -13 -5 -8 8 4 10 3 15 -3 11 -6 -3 -11 -16 -11 -28 -1
-17 -2 -18 -6 -4 -3 10 -10 14 -16 10 -7 -3 -4 3 6 15 13 14 17 28 12 44 -4
13 -4 20 0 16 5 -4 14 -3 22 3 8 7 13 8 13 1 0 -5 11 -12 25 -14 20 -4 23 -3
14 8 -6 8 -16 14 -22 14 -5 0 -16 8 -24 18 -8 9 -12 12 -9 5 4 -6 2 -14 -4
-18 -6 -4 -10 6 -11 22 -1 15 -3 44 -5 63 -7 62 -5 93 6 104 8 8 14 6 20 -4 8
-12 10 -11 10 7 0 12 -4 24 -9 27 -11 7 -20 55 -11 61 4 2 5 18 2 34 -3 22 0
33 12 37 12 5 14 14 10 38 -12 66 -10 88 8 99 10 7 18 16 18 21 0 4 -8 2 -17
-5 -15 -13 -16 -11 -10 11 4 14 7 31 7 39 0 7 6 11 14 8 17 -7 42 89 32 126
-3 14 -1 29 4 32 6 4 8 10 5 15 -3 5 -1 11 4 14 5 3 9 40 8 81 0 43 5 81 12
89 8 9 9 26 3 53 -5 23 -5 47 0 59 7 15 4 31 -11 59 -14 27 -17 41 -10 46 7 4
2 10 -12 15 -22 8 -20 9 16 14 22 3 86 4 141 2 99 -3 102 -4 97 -25 -4 -18 -3
-20 7 -7 9 12 11 10 6 -12 -7 -32 12 -48 29 -25 7 10 18 17 26 16 10 0 11 -2
1 -6 -6 -2 -10 -8 -7 -13 3 -4 -9 -13 -26 -19 -17 -6 -28 -15 -25 -20 4 -5 2
-13 -4 -16 -6 -4 -9 -1 -8 7 2 7 -6 13 -17 13 -16 0 -19 -6 -17 -29 3 -18 0
-26 -7 -22 -6 4 -11 3 -11 -2 0 -10 24 -33 31 -29 2 1 -5 -6 -16 -15 -20 -17
-20 -18 3 -18 13 0 21 -4 17 -10 -3 -5 -13 -7 -23 -4 -15 5 -15 4 -2 -6 10 -8
11 -13 4 -16 -20 -8 -3 -42 25 -51 14 -5 45 -8 69 -8 24 1 45 -2 48 -7 10 -16
-25 -45 -56 -46 -36 -1 -53 -10 -44 -24 5 -7 -2 -9 -22 -4 -27 6 -28 5 -10 -9
10 -8 23 -12 29 -8 6 3 7 1 4 -5 -4 -5 -19 -9 -33 -7 -21 2 -26 -3 -31 -28 -3
-17 -14 -32 -24 -34 -15 -4 -16 -9 -8 -24 7 -15 6 -19 -6 -19 -19 0 -20 -26 0
-34 9 -3 12 -12 8 -22 -5 -13 -3 -15 7 -9 9 6 11 4 6 -4 -5 -7 -14 -10 -22 -7
-11 4 -12 2 -4 -14 14 -25 13 -30 -6 -30 -8 0 -12 -5 -9 -10 4 -6 11 -8 16 -5
5 4 9 1 9 -5 0 -7 -6 -10 -14 -7 -8 3 -16 -2 -19 -13 -3 -11 0 -21 5 -22 16
-6 -1 -48 -18 -48 -8 0 -13 -4 -9 -9 3 -5 1 -12 -5 -16 -5 -3 -10 3 -10 14 0
16 -6 21 -25 21 -14 0 -25 -4 -25 -8 0 -19 27 -42 53 -44 20 -2 27 -8 27 -24
0 -22 -22 -34 -65 -38 -11 0 -25 -5 -32 -9 -8 -5 -15 1 -19 18 -3 14 -13 25
-21 25 -8 0 -12 -6 -9 -12 3 -7 9 -21 12 -30 4 -10 10 -18 14 -18 13 0 20 -29
8 -36 -7 -4 -8 -3 -4 4 4 7 1 12 -9 12 -13 0 -14 -4 -5 -20 6 -11 17 -20 24
-20 9 0 17 -16 21 -40 4 -25 13 -41 25 -45 16 -5 18 -13 14 -53 -3 -26 -5 -55
-5 -65 0 -10 -9 -23 -20 -30 -10 -6 -19 -16 -19 -22 -1 -5 -9 -28 -20 -50 -11
-22 -19 -45 -20 -51 0 -5 -11 -33 -25 -62 -13 -28 -22 -57 -20 -64 3 -8 -1
-22 -9 -33 -20 -27 -51 -9 -52 31 -1 31 -40 104 -55 104 -5 0 -9 -9 -9 -21 0
-13 -4 -18 -12 -13 -9 5 -8 2 1 -9 10 -13 17 -15 27 -6 9 7 14 8 14 1 0 -12
-29 -24 -41 -16 -17 10 -9 -9 9 -22 15 -12 15 -12 -5 -7 -25 6 -32 -14 -12
-34 6 -6 13 -32 15 -58 2 -37 0 -46 -12 -41 -8 3 -14 0 -14 -7 0 -8 -4 -6 -10
3 -7 11 -10 11 -10 2 0 -7 -4 -10 -10 -7 -5 3 -10 0 -11 -7 0 -7 -5 2 -11 21
-5 19 -13 30 -18 25 -6 -7 -20 -82 -22 -124 -1 -26 11 -28 200 -29 168 -2 201
1 212 14 20 24 59 19 70 -10 12 -31 5 -50 -23 -63 -22 -10 -22 -10 6 -21 16
-6 58 -12 95 -13 l67 -1 -85 -7 c-72 -6 -87 -5 -97 9 -50 67 -31 62 -219 60
l-171 -1 11 -24 c7 -15 20 -24 33 -24 13 0 37 -9 55 -20 18 -11 29 -20 25 -20
-4 0 -3 -6 2 -12 16 -21 132 -155 181 -210 81 -92 23 -45 -119 95 l-139 139
-60 3 c-44 3 -64 0 -73 -11 -6 -8 -8 -14 -5 -14 4 0 2 -8 -3 -19 -9 -16 -4
-23 29 -45 39 -26 50 -49 30 -61 -6 -4 -8 -10 -5 -15 3 -5 1 -11 -4 -14 -11
-7 -61 13 -61 25 0 4 -7 10 -16 13 -8 3 -12 2 -9 -4 3 -6 -1 -7 -9 -4 -9 3
-16 10 -16 14 0 4 -7 10 -14 13 -10 4 -13 1 -9 -9 4 -12 -1 -14 -26 -9 -24 4
-29 2 -25 -10 6 -14 -6 -20 -29 -16 -5 1 -5 -9 -2 -21 7 -23 7 -23 -9 -3 -16
20 -21 12 -16 -24 1 -10 -6 -12 -25 -9 -21 4 -25 2 -20 -13 7 -23 -34 -52 -60
-43 -15 6 -16 4 -5 -15 12 -24 4 -44 -9 -22 -7 10 -9 10 -14 -3 -3 -8 -1 -17
6 -20 7 -4 2 -4 -10 -2 -19 3 -23 0 -23 -19 0 -21 -11 -32 -35 -33 -5 0 -8 7
-7 16 2 9 1 14 -2 11 -4 -4 -9 -17 -11 -29 -2 -12 -6 -24 -7 -25 -2 -1 -12 -8
-23 -14 -15 -9 -16 -11 -2 -7 9 3 17 1 17 -4 0 -9 -16 -14 -46 -13 -6 0 -10
-10 -8 -23 1 -13 -2 -24 -7 -24 -5 0 -9 9 -9 21 0 11 -4 18 -10 14 -5 -3 -7
-12 -4 -19 3 -8 -2 -16 -13 -19 -15 -4 -14 -5 4 -6 12 0 25 -6 28 -12 5 -7 -4
-9 -28 -5 -25 4 -37 2 -41 -9 -3 -9 0 -12 10 -8 14 5 20 -12 7 -20 -5 -2 -3
-2 4 -1 7 2 15 -1 18 -6 4 -6 2 -10 -4 -10 -5 0 -16 -7 -25 -15 -13 -13 -17
-13 -28 -2 -13 14 -48 11 -48 -4 0 -5 6 -6 14 -3 11 4 13 0 9 -15 -4 -18 -7
-18 -20 -6 -8 8 -18 15 -23 15 -20 0 5 -33 73 -98 144 -136 261 -254 241 -241
-21 14 -260 223 -428 376 -50 45 -92 81 -93 80 -1 -2 -3 -128 -5 -282 -2 -154
-5 -323 -9 -375 -3 -52 -6 58 -7 245 -1 187 -5 364 -9 393 l-6 53 -146 129
c-80 71 -148 126 -151 123 -3 -3 1 -8 8 -10 14 -5 16 -33 2 -33 -5 0 -10 5
-10 12 0 7 -14 -3 -31 -22 -17 -19 -27 -29 -23 -21 5 9 3 12 -4 7 -19 -11 -14
-46 6 -47 16 -1 16 -2 0 -6 -26 -7 -22 -22 7 -29 14 -3 25 -10 25 -15 0 -5 4
-9 10 -9 5 0 24 -9 42 -20 l33 -20 -35 6 c-29 6 -99 33 -160 64 -10 4 -18 0
-25 -14 -7 -13 -19 -20 -31 -18 -15 2 -16 1 -4 -7 12 -9 12 -11 -3 -17 -10 -4
-16 -13 -13 -20 3 -8 0 -14 -6 -14 -9 0 -9 -3 0 -12 13 -13 17 -32 5 -25 -5 3
-14 -1 -21 -9 -7 -8 -9 -14 -5 -14 4 0 2 -5 -5 -12 -9 -9 -15 -9 -24 0 -9 9
-9 12 2 12 7 0 11 2 8 5 -3 3 -13 3 -22 -1 -20 -8 -21 -34 -1 -34 8 0 15 -5
15 -11 0 -7 -10 -9 -27 -4 -24 6 -25 5 -12 -11 9 -11 9 -15 2 -10 -8 4 -13 2
-13 -8 0 -8 -5 -16 -10 -18 -6 -2 -12 -13 -13 -25 0 -12 -5 -19 -9 -17 -5 3
-6 9 -3 14 7 11 -29 7 -37 -5 -12 -16 -9 -30 3 -18 9 9 15 8 25 -2 22 -21 17
-28 -16 -22 -24 5 -33 2 -46 -17 -19 -30 -44 -41 -44 -21 0 8 7 15 15 15 8 0
15 4 15 10 0 5 -7 7 -16 3 -9 -3 -20 0 -26 8 -6 9 -7 -2 -3 -33 4 -31 2 -48
-4 -48 -6 0 -8 6 -5 14 3 8 0 17 -7 22 -7 4 -10 3 -5 -4 6 -11 -47 -28 -72
-23 -9 1 -12 -4 -7 -18 3 -11 1 -23 -6 -27 -8 -4 -9 -3 -5 4 4 7 2 12 -3 12
-6 0 -11 8 -12 18 0 14 -2 13 -9 -4 -4 -12 -16 -24 -25 -27 -13 -6 -14 -10 -4
-29 10 -19 10 -21 -2 -12 -15 11 -49 26 -49 20 0 -1 80 -79 178 -172 97 -93
188 -182 202 -199 l24 -30 -24 21 c-36 30 -552 497 -708 641 -73 68 -137 123
-141 123 -12 0 -61 -41 -347 -290 -484 -420 -794 -692 -794 -697 0 -5 131
-130 256 -244 104 -95 519 -484 594 -556 36 -35 90 -88 121 -118 l55 -55 344
0 c189 0 341 -3 337 -6 -10 -10 -2926 -13 -2932 -4 -3 5 142 9 322 10 181 1
384 2 453 3 l124 2 14 40 c8 22 16 46 18 54 3 8 7 12 9 9 3 -3 -2 -24 -10 -48
-8 -23 -15 -46 -15 -51 0 -5 113 -9 250 -9 138 0 250 2 250 5 0 6 -285 445
-356 548 -44 64 -62 83 -71 75 -10 -8 -13 -2 -13 25 0 35 -20 63 -35 49 -5 -4
-5 -2 -1 5 3 6 2 14 -4 18 -18 11 -11 -37 8 -52 9 -8 12 -12 7 -9 -8 3 -11
-52 -11 -172 1 -181 -11 -257 -59 -402 l-15 -45 7 45 c4 25 6 56 6 69 -1 18 1
20 8 10 8 -13 13 13 13 73 0 9 3 15 7 12 22 -13 22 345 0 421 l-8 30 -8 -27
c-4 -16 -4 -40 0 -55 17 -65 25 -263 10 -263 -5 0 -3 -5 5 -10 8 -5 10 -10 3
-10 -6 0 -14 -26 -18 -62 -4 -35 -14 -72 -22 -83 -15 -19 -15 -19 -9 5 22 86
32 268 17 295 -3 5 -4 25 -2 43 4 44 -9 113 -19 107 -8 -5 -7 -21 1 -50 8 -28
-36 -319 -57 -380 l-14 -40 4 45 c2 25 7 56 11 70 5 20 4 22 -4 10 -9 -11 -10
-4 -6 30 4 43 4 43 -5 10 -5 -19 -7 -41 -5 -47 2 -7 2 -20 -2 -29 -5 -13 -7
-13 -14 -2 -7 10 -9 8 -9 -6 0 -11 -2 -17 -5 -15 -2 3 5 47 15 99 11 52 20
107 20 121 0 23 -3 26 -25 21 -14 -2 -25 0 -25 6 0 16 29 35 44 29 11 -4 14 2
14 21 -1 15 3 38 7 52 6 20 5 23 -6 14 -8 -6 -57 -45 -110 -87 -140 -112 -150
-100 -14 16 39 33 95 83 125 111 30 29 109 97 175 151 142 116 205 171 205
178 0 4 -236 221 -349 321 l-45 39 -11 -34 c-7 -19 -16 -34 -21 -34 -15 0 -7
-51 22 -138 15 -45 27 -92 26 -105 -1 -13 2 -20 8 -17 6 3 10 4 10 1 0 -2 3
-13 6 -23 5 -15 4 -15 -5 -3 -16 23 -14 -26 5 -100 8 -33 13 -68 11 -78 -3
-10 -6 -5 -7 13 -3 25 -4 22 -9 -15 l-7 -45 -4 52 c-3 28 -2 49 3 46 4 -2 7 5
7 17 0 12 -4 19 -9 16 -5 -3 -12 27 -16 67 -7 60 -9 67 -15 42 -7 -28 -8 -27
-9 13 0 23 -5 42 -11 42 -5 0 -10 7 -10 15 0 8 -6 15 -14 15 -9 0 -14 9 -14
23 3 53 -2 77 -18 77 -9 0 -14 6 -11 13 8 21 -13 108 -32 137 -9 14 -27 46
-40 72 -31 62 -129 183 -147 182 -7 -1 -11 2 -8 8 9 14 -17 40 -34 33 -8 -3
-16 3 -19 15 -3 11 -17 23 -32 26 -14 4 -48 13 -74 21 -26 9 -51 13 -54 9 -3
-3 -11 -2 -18 4 -7 6 -32 3 -71 -10 -33 -10 -82 -21 -109 -24 l-50 -5 50 13
50 13 -35 5 c-29 4 -25 5 18 6 28 1 52 6 52 12 0 5 -8 7 -17 4 -15 -5 -15 -3
1 10 18 15 14 16 -61 16 -44 0 -109 -3 -144 -7 -62 -8 -63 -8 -22 -13 34 -4
41 -8 33 -19 -7 -13 -11 -13 -25 -1 -12 10 -52 15 -130 17 -118 3 -146 -1
-142 -20 1 -7 -11 -12 -28 -12 -26 0 -30 4 -31 28 -3 73 -3 73 -413 -283 -329
-285 -472 -408 -591 -505 -158 -130 -332 -275 -610 -510 -253 -214 -377 -315
-386 -315 -4 0 -4 12 -1 26 3 16 0 28 -9 31 -8 3 -14 14 -14 24 0 10 -4 19 -9
19 -21 0 -34 114 -20 185 5 28 10 68 10 90 2 53 21 130 59 240 17 50 33 116
34 149 2 32 7 61 12 65 10 7 34 47 34 56 0 4 -5 3 -10 0 -6 -3 -10 3 -10 14 0
22 19 30 21 9 0 -7 5 0 11 17 8 21 8 30 -1 33 -6 2 -11 8 -11 14 0 6 6 8 14 5
8 -3 20 2 28 11 9 11 10 14 0 8 -14 -8 -16 7 -3 32 11 22 43 149 46 182 1 14
5 36 9 49 6 18 10 21 17 10 6 -10 9 -8 9 9 0 12 5 22 10 22 6 0 10 5 10 11 0
5 -6 7 -12 3 -10 -5 -10 -4 -1 6 9 9 9 19 2 32 -6 11 -8 22 -5 25 3 4 2 11 -4
18 -13 15 20 87 37 81 7 -3 13 -1 13 4 0 6 -5 10 -11 10 -8 0 -7 6 2 17 10 11
10 14 2 9 -7 -4 -13 -2 -13 3 0 15 27 14 32 -1 3 -7 10 -8 17 -4 8 6 11 19 7
41 -5 22 -2 35 6 38 10 5 10 8 -2 16 -8 5 -19 9 -23 9 -5 1 -14 7 -20 15 -7 8
-21 18 -33 21 -17 5 -28 -7 -73 -81 -43 -72 -51 -91 -42 -106 10 -15 9 -17
-12 -12 -19 5 -39 -12 -132 -111 -61 -65 -109 -124 -107 -131 2 -7 -2 -13 -7
-13 -14 0 -34 -38 -40 -79 -4 -19 -12 -36 -19 -39 -19 -6 -26 26 -8 44 28 28
50 78 47 111 -1 27 2 32 17 30 23 -3 236 217 273 283 27 47 44 120 28 120 -5
0 -9 -10 -9 -22 -1 -30 -33 -68 -57 -68 -38 0 -53 22 -54 80 -2 76 -11 80
-229 87 -154 5 -177 3 -189 -11 -19 -22 -48 -20 -62 5 -9 18 -8 25 8 41 19 18
53 16 53 -3 0 -5 83 -9 185 -9 l185 0 -218 223 c-120 122 -241 247 -267 277
-27 30 39 -32 146 -137 l194 -193 37 6 c26 5 38 3 38 -5 0 -7 -6 -11 -12 -10
-38 5 -38 -4 -2 -41 22 -22 45 -38 52 -35 6 2 12 0 12 -4 0 -5 18 -11 40 -13
22 -2 40 0 40 5 0 5 7 6 16 3 10 -4 14 -1 12 6 -3 7 -17 15 -31 18 -20 4 -24
9 -18 19 7 11 14 10 37 -6 36 -26 101 -53 125 -53 11 0 19 -4 19 -8 0 -22 31
-5 61 33 19 24 61 63 94 89 33 26 100 78 149 116 114 88 151 101 282 96 94 -3
102 -2 122 19 12 13 20 30 16 38 -3 8 -1 18 5 22 6 3 11 -1 11 -10 0 -9 5 -13
10 -10 6 3 10 1 10 -4 0 -6 -4 -11 -10 -11 -5 0 -10 -5 -10 -10 0 -7 6 -7 19
-1 16 9 20 6 25 -24 6 -32 9 -34 27 -22 17 10 18 12 3 16 -12 2 -14 5 -5 11
18 11 -9 52 -29 45 -8 -4 -11 -3 -8 1 4 3 -8 23 -27 43 -77 80 -15 42 105 -65
19 -17 77 -69 129 -115 51 -46 104 -92 117 -102 l24 -19 0 154 c0 196 12 662
16 667 2 2 4 -187 4 -421 l0 -426 103 -96 102 -95 115 5 c107 6 170 -1 300
-31 27 -6 49 9 216 160 49 44 108 96 132 116 l43 36 -78 74 c-115 109 -253
248 -213 213 29 -25 138 -123 283 -253 l27 -25 33 24 32 24 -30 -35 c-16 -19
-65 -63 -108 -99 -93 -77 -271 -238 -275 -249 -2 -5 6 -11 18 -14 11 -3 20 -1
20 4 0 5 5 9 10 9 6 0 10 -6 10 -14 0 -7 14 -16 31 -20 48 -9 56 -8 55 14 -1
10 3 18 9 17 5 -1 8 -10 7 -19 -4 -25 49 -32 143 -19 43 6 80 9 83 7 2 -3 10
1 17 8 7 7 39 14 71 15 33 1 77 6 99 11 51 12 55 12 55 1 0 -5 -35 -12 -77
-16 -93 -9 -129 -24 -63 -26 25 -1 60 -3 77 -5 18 -1 35 2 39 7 3 5 19 9 35 9
17 0 28 -4 24 -9 -5 -10 62 -28 70 -19 3 2 -16 25 -42 51 -25 26 -43 47 -38
47 7 0 68 -54 295 -260 164 -150 168 -153 191 -136 43 30 87 -13 67 -64 -9
-23 -4 -30 50 -80 273 -252 336 -310 342 -310 7 0 324 271 910 779 196 170
240 210 240 218 0 4 -19 28 -42 53 -35 37 -37 39 -8 14 73 -63 56 -67 195 52
l127 108 -44 13 c-68 20 -96 51 -105 114 -6 41 -13 55 -27 57 -15 3 -18 -1
-14 -22 3 -15 0 -31 -8 -37 -11 -9 -14 -7 -15 7 -1 11 -1 25 0 31 1 10 -30 12
-131 9 -105 -3 -135 -1 -146 11 -9 8 -18 10 -21 5 -3 -5 -21 -9 -39 -10 -43
-1 -85 -28 -75 -47 5 -7 52 -55 107 -105 54 -51 94 -91 88 -89 -21 7 -350 300
-796 709 -147 135 -273 246 -280 248 -7 2 -35 -17 -63 -42 -27 -24 -101 -89
-164 -143 -64 -54 -265 -226 -448 -383 -183 -157 -337 -286 -344 -288 -7 -2
-5 3 4 10 16 13 40 35 306 273 79 70 140 132 136 138 -3 5 -1 7 4 4 6 -4 17 1
24 10 8 9 9 14 3 10 -7 -4 -11 5 -11 24 0 22 4 28 15 24 12 -4 13 -3 2 10 -7
8 -9 15 -4 15 4 0 -3 11 -16 25 l-23 25 22 0 c17 0 22 4 17 16 -3 9 -6 21 -6
27 0 7 -5 4 -11 -5 -15 -27 -30 -22 -19 6 7 19 4 28 -13 43 -12 11 -153 153
-313 315 l-291 295 3 49 c3 45 19 128 32 164 3 8 6 20 8 25 1 6 7 25 13 43 6
19 6 32 0 32 -5 0 -9 5 -9 10 0 6 7 10 15 10 8 0 15 5 15 10 0 6 -5 10 -11 10
-5 0 -8 4 -4 10 3 5 12 7 19 4 8 -3 17 -1 21 5 6 11 35 -9 35 -25 0 -4 15 -39
34 -78 18 -39 43 -105 56 -147 22 -73 45 -118 55 -108 2 3 -5 24 -16 47 -12
23 -25 57 -29 75 -5 17 -23 70 -40 117 -35 93 -53 168 -46 187 3 6 0 13 -6 15
-6 2 1 16 16 31 l27 27 42 -31 c23 -17 62 -49 87 -72 41 -39 98 -86 211 -177
76 -61 332 -292 558 -502 51 -49 97 -88 101 -88 5 0 57 41 117 91 221 187 214
178 188 254 l-14 40 4 -40 4 -40 -13 40 c-18 49 -21 88 -6 65 7 -10 9 19 6 95
-4 120 9 310 24 359 l10 31 -5 -30 c-3 -16 -8 -116 -12 -220 -5 -164 -3 -202
13 -272 22 -100 35 -101 18 -1 -7 40 -13 118 -12 173 l1 100 7 -110 c4 -60 13
-136 19 -167 15 -70 14 -70 134 35 83 73 100 90 137 139 12 15 27 27 33 25 7
-1 11 4 9 11 -1 6 3 12 9 12 6 0 8 9 4 21 -6 19 -5 20 15 9 12 -6 28 -9 36 -6
11 4 11 0 -2 -20 -9 -13 -22 -28 -28 -32 -25 -15 -54 -63 -49 -81 7 -27 -16
-36 -25 -10 -8 20 -19 13 -153 -102 -79 -68 -157 -135 -174 -150 -16 -15 -85
-75 -152 -133 -68 -59 -123 -110 -122 -114 1 -7 51 -54 341 -313 156 -140 215
-185 192 -148 -3 6 0 15 7 20 11 7 10 9 -4 9 -10 0 -16 4 -13 9 6 9 -48 198
-59 209 -3 4 -10 0 -15 -8 -5 -8 -12 -11 -17 -6 -4 4 0 12 10 17 24 14 22 27
-14 93 -23 42 -33 74 -35 115 -1 31 -7 72 -13 91 -6 19 -11 42 -10 50 0 18 34
-86 43 -134 4 -20 12 -41 19 -48 7 -7 22 -34 35 -61 14 -27 28 -44 34 -41 7 4
8 2 4 -5 -9 -14 2 -67 17 -84 7 -7 27 -35 46 -62 32 -48 128 -145 144 -145 4
0 7 6 7 14 0 8 12 24 26 35 80 63 170 -34 98 -106 -35 -34 -26 -49 57 -91 53
-27 69 -31 94 -24 29 9 185 9 215 1 8 -3 21 -8 28 -13 8 -5 12 -3 10 6 -2 7
-10 16 -18 20 -12 5 -12 7 3 7 10 1 22 11 27 24 l9 22 0 -22 c1 -20 6 -23 47
-23 25 0 43 -4 40 -9 -3 -5 -27 -7 -53 -5 -37 3 -42 2 -23 -5 18 -7 20 -9 7
-10 -10 -1 -15 -6 -12 -11 4 -6 11 -8 16 -5 5 4 9 1 9 -4 0 -13 73 -13 110 -1
14 4 19 8 11 9 -8 1 -11 4 -7 8 10 10 36 13 36 4 0 -5 11 -6 25 -3 14 2 25 8
25 13 0 5 15 7 33 5 19 -3 39 2 49 11 41 37 127 -17 123 -76 -2 -24 1 -31 16
-31 15 0 128 88 234 182 17 14 152 128 300 253 149 125 295 248 325 274 30 26
89 74 130 106 80 63 257 210 404 335 126 107 348 293 529 445 86 72 156 136
156 143 1 6 9 12 20 12 13 0 21 -10 25 -34z m-5004 -36 c6 -11 8 -20 6 -20 -3
0 -10 9 -16 20 -6 11 -8 20 -6 20 3 0 10 -9 16 -20z m35 -60 c17 -32 20 -60 7
-60 -8 0 -32 65 -32 84 0 14 10 4 25 -24z m1262 8 c-3 -8 -6 -5 -6 6 -1 11 2
17 5 13 3 -3 4 -12 1 -19z m-1436 -23 c12 12 14 -2 15 -103 1 -64 4 -143 6
-175 3 -42 1 -63 -9 -73 -10 -9 -11 -14 -3 -14 7 0 9 -7 6 -16 -3 -8 -2 -12 4
-9 6 3 10 0 10 -7 0 -7 3 -24 6 -38 6 -25 5 -25 -21 5 -15 17 -62 67 -105 112
-100 104 -105 114 -80 143 11 13 26 20 34 17 9 -4 18 -2 21 3 3 4 0 10 -7 12
-6 2 -12 12 -14 21 -1 9 2 15 7 11 5 -3 9 0 9 5 0 6 7 11 15 11 19 0 19 7 0
27 -18 18 -3 45 21 36 8 -3 14 0 14 7 0 10 3 10 15 0 8 -7 15 -10 15 -7 0 3 3
13 7 23 5 13 3 15 -7 9 -9 -6 -11 -4 -5 5 6 10 10 10 20 -3 10 -14 14 -14 26
-2z m2089 5 c0 -5 -4 -10 -10 -10 -5 0 -10 5 -10 10 0 6 5 10 10 10 6 0 10 -4
10 -10z m-583 -57 c-3 -10 -5 -4 -5 12 0 17 2 24 5 18 2 -7 2 -21 0 -30z
m1443 18 c0 -6 -4 -13 -10 -16 -5 -3 -10 1 -10 9 0 9 5 16 10 16 6 0 10 -4 10
-9z m-1313 -43 c-3 -8 -6 -5 -6 6 -1 11 2 17 5 13 3 -3 4 -12 1 -19z m548 4
c-3 -3 -11 0 -18 7 -9 10 -8 11 6 5 10 -3 15 -9 12 -12z m915 -22 c0 -5 -4
-10 -10 -10 -5 0 -10 5 -10 10 0 6 5 10 10 10 6 0 10 -4 10 -10z m-2904 -15
c-1 -8 -5 -17 -8 -21 -5 -4 -4 16 1 34 3 9 9 -1 7 -13z m1421 -7 c-3 -8 -6 -5
-6 6 -1 11 2 17 5 13 3 -3 4 -12 1 -19z m0 -75 c-3 -10 -5 -2 -5 17 0 19 2 27
5 18 2 -10 2 -26 0 -35z m658 27 c3 -5 1 -10 -4 -10 -6 0 -11 5 -11 10 0 6 2
10 4 10 3 0 8 -4 11 -10z m1205 -40 c0 -5 -4 -10 -10 -10 -5 0 -10 5 -10 10 0
6 5 10 10 10 6 0 10 -4 10 -10z m615 -10 c3 -5 1 -10 -4 -10 -6 0 -11 5 -11
10 0 6 2 10 4 10 3 0 8 -4 11 -10z m-3275 -4 c0 -3 -4 -8 -10 -11 -5 -3 -10
-1 -10 4 0 6 5 11 10 11 6 0 10 -2 10 -4z m687 -43 c-3 -10 -5 -4 -5 12 0 17
2 24 5 18 2 -7 2 -21 0 -30z m29 -150 c-5 -5 -26 92 -25 115 1 9 7 -12 15 -47
8 -35 12 -66 10 -68z m1634 37 c0 -5 -4 -10 -10 -10 -5 0 -10 5 -10 10 0 6 5
10 10 10 6 0 10 -4 10 -10z m-1641 -90 c0 -9 -4 -8 -9 5 -5 11 -9 27 -9 35 0
9 4 8 9 -5 5 -11 9 -27 9 -35z m3901 40 c12 -8 11 -10 -7 -10 -13 0 -23 5 -23
10 0 13 11 13 30 0z m-5350 -53 c0 -10 -4 -15 -10 -12 -5 3 -10 18 -10 33 0
21 2 24 10 12 5 -8 10 -23 10 -33z m2871 -20 c-13 -13 -26 -3 -16 12 3 6 11 8
17 5 6 -4 6 -10 -1 -17z m-3171 3 c0 -5 -4 -10 -10 -10 -5 0 -10 5 -10 10 0 6
5 10 10 10 6 0 10 -4 10 -10z m2455 -20 c-5 -8 -11 -8 -17 -2 -6 6 -7 16 -3
22 5 8 11 8 17 2 6 -6 7 -16 3 -22z m3175 14 c0 -8 -4 -12 -10 -9 -5 3 -10 10
-10 16 0 5 5 9 10 9 6 0 10 -7 10 -16z m-3210 -44 c0 -5 -4 -10 -10 -10 -5 0
-10 5 -10 10 0 6 5 10 10 10 6 0 10 -4 10 -10z m-562 -150 c0 -9 -3 -7 -8 5
-5 11 -8 29 -8 40 0 16 2 15 8 -5 4 -14 8 -32 8 -40z m447 40 c3 -5 1 -10 -4
-10 -6 0 -11 5 -11 10 0 6 2 10 4 10 3 0 8 -4 11 -10z m-418 -72 c-3 -8 -6 -5
-6 6 -1 11 2 17 5 13 3 -3 4 -12 1 -19z m-20 -10 c-3 -8 -6 -5 -6 6 -1 11 2
17 5 13 3 -3 4 -12 1 -19z m3953 -3 c16 -20 6 -45 -19 -45 -26 0 -45 32 -29
48 16 16 33 15 48 -3z m-205 -23 c0 -18 -20 -15 -23 4 -3 10 1 15 10 12 7 -3
13 -10 13 -16z m-3738 -24 c-3 -8 -6 -5 -6 6 -1 11 2 17 5 13 3 -3 4 -12 1
-19z m983 -2 c0 -3 -4 -8 -10 -11 -5 -3 -10 -1 -10 4 0 6 5 11 10 11 6 0 10
-2 10 -4z m-2270 -119 c-7 -18 -9 -16 -10 18 0 22 -2 51 -5 65 -3 14 2 6 10
-18 9 -28 11 -50 5 -65z m4955 63 c3 -5 1 -10 -4 -10 -6 0 -11 5 -11 10 0 6 2
10 4 10 3 0 8 -4 11 -10z m-1925 -20 c0 -5 -4 -10 -10 -10 -5 0 -10 5 -10 10
0 6 5 10 10 10 6 0 10 -4 10 -10z m-1723 -32 c-3 -8 -6 -5 -6 6 -1 11 2 17 5
13 3 -3 4 -12 1 -19z m3643 18 c0 -3 -4 -8 -10 -11 -5 -3 -10 -1 -10 4 0 6 5
11 10 11 6 0 10 -2 10 -4z m-1910 -22 c0 -8 -5 -12 -10 -9 -6 4 -8 11 -5 16 9
14 15 11 15 -7z m1660 -44 c0 -5 -2 -10 -4 -10 -3 0 -8 5 -11 10 -3 6 -1 10 4
10 6 0 11 -4 11 -10z m-4646 -69 c30 -25 65 -111 45 -111 -5 0 -9 7 -9 17 0 9
-17 39 -39 67 -21 28 -41 63 -45 76 -7 22 -5 22 12 -5 10 -16 26 -36 36 -44z
m1406 39 c0 -5 -4 -10 -10 -10 -5 0 -10 5 -10 10 0 6 5 10 10 10 6 0 10 -4 10
-10z m700 2 c0 -13 -12 -22 -22 -16 -10 6 -1 24 13 24 5 0 9 -4 9 -8z m2578
-20 c2 -11 -6 -38 -17 -59 l-21 -38 4 38 c2 23 0 35 -6 29 -5 -5 -10 -18 -11
-29 0 -13 -6 -19 -14 -16 -16 6 -17 23 -2 23 6 0 8 7 5 15 -3 9 1 18 9 21 8 4
15 14 15 24 0 26 34 19 38 -8z m840 -64 c2 -19 -2 -28 -18 -33 -37 -12 -64 27
-38 53 21 21 53 10 56 -20z m-3498 2 c0 -5 -4 -10 -10 -10 -5 0 -10 5 -10 10
0 6 5 10 10 10 6 0 10 -4 10 -10z m-766 -15 c6 -17 -2 -45 -14 -45 -4 0 -13 7
-20 15 -10 12 -10 18 0 30 7 8 16 15 20 15 4 0 10 -7 14 -15z m886 -25 c0 -5
-4 -10 -10 -10 -5 0 -10 5 -10 10 0 6 5 10 10 10 6 0 10 -4 10 -10z m-710 -9
c0 -18 -18 -21 -30 -6 -10 13 -9 15 9 15 11 0 21 -4 21 -9z m3544 -12 c-3 -5
-10 -7 -15 -3 -5 3 -7 10 -3 15 3 5 10 7 15 3 5 -3 7 -10 3 -15z m-4900 -35
c10 -25 -1 -29 -14 -5 -6 12 -7 21 -1 21 5 0 12 -7 15 -16z m4609 -13 c3 -14
1 -18 -9 -14 -8 3 -14 11 -14 19 0 21 17 17 23 -5z m-4423 -11 c0 -5 -2 -10
-4 -10 -3 0 -8 5 -11 10 -3 6 -1 10 4 10 6 0 11 -4 11 -10z m2777 -24 c-4 -9
-13 -13 -22 -10 -18 7 -20 31 -2 37 17 6 31 -9 24 -27z m-2931 -33 c-8 -8 -12
-3 -21 27 l-7 25 17 -23 c9 -13 14 -26 11 -29z m1244 37 c0 -5 -4 -10 -10 -10
-5 0 -10 5 -10 10 0 6 5 10 10 10 6 0 10 -4 10 -10z m0 -44 c0 -3 -4 -8 -10
-11 -5 -3 -10 -1 -10 4 0 6 5 11 10 11 6 0 10 -2 10 -4z m3706 -27 c3 -6 1
-16 -5 -22 -9 -9 -14 -8 -21 3 -9 15 -4 30 10 30 5 0 12 -5 16 -11z m-3686 -9
c0 -5 -4 -10 -10 -10 -5 0 -10 5 -10 10 0 6 5 10 10 10 6 0 10 -4 10 -10z
m4370 -45 c18 -22 3 -57 -23 -53 -25 3 -34 32 -17 53 16 19 24 19 40 0z
m-3603 -27 c-3 -8 -6 -5 -6 6 -1 11 2 17 5 13 3 -3 4 -12 1 -19z m619 -20 l29
-33 -32 29 c-31 28 -38 36 -30 36 2 0 16 -15 33 -32z m-176 -28 c0 -5 -4 -10
-10 -10 -5 0 -10 5 -10 10 0 6 5 10 10 10 6 0 10 -4 10 -10z m2300 -50 c0 -5
-4 -10 -10 -10 -5 0 -10 5 -10 10 0 6 5 10 10 10 6 0 10 -4 10 -10z m-3470
-26 c0 -19 -28 -30 -42 -16 -8 8 -8 15 1 26 14 17 41 10 41 -10z m1321 3 c-10
-9 -11 -8 -5 6 3 10 9 15 12 12 3 -3 0 -11 -7 -18z m1829 13 c-8 -5 -19 -10
-25 -10 -5 0 -3 5 5 10 8 5 20 10 25 10 6 0 3 -5 -5 -10z m100 0 c0 -5 -4 -10
-10 -10 -5 0 -10 5 -10 10 0 6 5 10 10 10 6 0 10 -4 10 -10z m-3780 -34 c0 -8
-4 -17 -9 -21 -12 -7 -24 12 -16 25 9 15 25 12 25 -4z m1814 -7 c-3 -5 -10 -7
-15 -3 -5 3 -7 10 -3 15 3 5 10 7 15 3 5 -3 7 -10 3 -15z m-369 1 c-3 -5 -13
-10 -21 -10 -8 0 -12 5 -9 10 3 6 13 10 21 10 8 0 12 -4 9 -10z m-1540 -47
c10 -77 13 -81 35 -53 22 28 26 56 9 62 -6 2 -9 13 -7 23 4 18 6 17 16 -7 17
-40 30 -42 52 -6 11 18 20 26 20 18 0 -9 -7 -26 -16 -39 -12 -17 -13 -26 -5
-34 6 -6 11 -21 11 -34 0 -13 4 -23 9 -23 12 0 21 26 21 60 0 16 5 32 11 35 7
5 8 -5 4 -29 -8 -39 -1 -45 26 -20 15 13 16 21 7 38 -6 11 -15 24 -21 27 -5 4
-6 12 -2 19 5 8 13 1 23 -21 9 -19 17 -36 19 -38 2 -3 14 6 28 19 14 13 25 18
25 12 0 -6 -26 -31 -57 -54 -98 -73 -122 -110 -108 -165 6 -25 8 -24 32 30 14
31 30 57 35 57 13 0 -3 -50 -29 -88 -14 -21 -23 -49 -23 -71 l0 -36 21 33 c12
17 25 32 29 32 5 0 14 15 21 33 8 22 24 38 51 52 49 24 110 89 102 110 -4 8
-1 15 5 15 6 0 11 -9 11 -21 0 -22 -95 -119 -117 -119 -6 0 -19 -14 -27 -31
l-16 -32 66 6 c36 2 71 10 77 16 6 6 15 11 21 11 5 0 2 -6 -8 -13 -17 -13 -17
-14 8 -31 28 -18 51 -13 42 10 -3 9 2 14 14 14 26 0 25 -12 -1 -35 -19 -19
-21 -19 -54 -1 -56 30 -205 12 -205 -25 0 -13 32 -11 80 6 46 16 70 12 26 -4
-14 -6 -26 -15 -26 -20 0 -5 -17 -7 -39 -4 -31 4 -43 1 -60 -16 -11 -11 -21
-28 -21 -36 0 -19 -2 -19 45 5 47 24 65 20 123 -27 35 -29 45 -33 58 -23 8 7
17 10 20 7 3 -3 -4 -11 -16 -17 -22 -12 -29 -9 -92 41 -20 17 -34 20 -60 15
-53 -10 -69 -27 -75 -79 -10 -90 10 -121 87 -132 27 -4 53 -11 56 -17 4 -6 -4
-8 -22 -4 -16 3 -47 8 -69 11 l-40 6 35 -32 c19 -19 34 -37 33 -41 -4 -12 49
-48 73 -48 38 0 53 -10 65 -47 6 -19 9 -36 6 -39 -2 -3 -8 8 -12 23 -9 39 -23
53 -54 53 -32 0 -60 19 -130 88 l-54 53 6 -41 c6 -45 27 -74 69 -96 15 -8 29
-22 33 -32 3 -11 15 -24 28 -31 13 -7 15 -10 4 -6 -10 3 -25 5 -33 5 -8 0 -14
9 -14 20 0 11 -12 27 -27 36 -16 10 -38 29 -50 43 l-23 26 0 -31 c0 -18 12
-50 29 -74 17 -25 26 -50 23 -59 -5 -13 -7 -13 -10 4 -3 11 -14 34 -26 52
l-23 33 -18 -38 c-10 -20 -17 -46 -16 -57 3 -19 2 -19 -11 -2 -13 18 -16 17
-46 -17 -18 -20 -32 -32 -32 -27 0 5 21 29 46 53 52 49 74 85 74 123 0 26 -1
26 -55 -20 -39 -34 -55 -55 -56 -74 -2 -23 -2 -23 -6 -4 -4 19 -7 21 -28 11
-12 -5 -28 -20 -33 -32 -9 -17 -11 -18 -11 -4 -1 9 19 31 44 48 39 27 45 36
45 66 l0 35 -27 -19 c-16 -11 -43 -23 -61 -27 -20 -4 -38 -16 -47 -33 -8 -15
-14 -21 -15 -14 0 22 47 62 74 62 14 0 34 11 48 28 12 15 37 38 53 51 l30 24
-58 -6 c-43 -4 -66 -13 -92 -34 -66 -54 -93 -73 -106 -73 -7 0 10 15 37 33
l49 32 -35 6 -35 6 38 2 c22 0 50 10 64 21 14 11 36 20 48 20 36 0 85 21 95
40 6 10 10 43 10 73 0 49 -3 58 -31 81 -41 35 -65 33 -123 -9 -28 -19 -52 -31
-55 -27 -3 5 -15 14 -26 20 -15 8 -16 11 -5 12 9 0 21 -5 28 -12 9 -9 18 -7
39 10 16 12 43 30 61 39 33 17 35 17 73 -4 36 -20 39 -20 39 -3 0 26 -25 43
-68 44 -20 0 -39 4 -42 8 -3 4 -21 14 -40 22 -39 17 -29 21 16 7 16 -5 49 -12
74 -14 l45 -6 -28 25 c-21 18 -40 24 -73 24 -29 0 -43 4 -39 11 4 6 19 7 36 4
39 -9 52 20 20 46 -15 12 -18 20 -10 25 14 8 49 -30 49 -53 0 -8 14 -28 30
-45 l30 -30 0 29 c0 15 -10 46 -23 68 -18 31 -32 43 -68 55 -67 22 -79 35 -77
84 l1 41 4 -36 c5 -42 39 -82 52 -60 6 10 10 9 14 -3 4 -9 13 -16 21 -16 13 0
14 5 5 27 -13 36 -9 31 45 -50 34 -51 46 -78 46 -106 0 -70 13 -161 23 -161 5
0 8 44 5 113 -4 124 -12 146 -76 215 -21 23 -35 42 -30 42 4 0 8 14 8 30 0 37
-15 39 -27 4 l-8 -25 -28 21 c-15 12 -27 26 -27 32 0 7 11 1 24 -11 l24 -23
13 24 c7 12 12 29 11 36 -2 6 2 12 7 12 5 0 13 -21 16 -47z m298 -50 c5 -26 2
-42 -7 -32 -9 11 -15 59 -7 59 5 0 11 -12 14 -27z m-428 -78 c25 -27 45 -50
45 -51 0 -1 -9 0 -20 3 -11 3 -20 11 -20 18 0 7 -16 26 -34 42 -30 24 -34 32
-28 58 7 29 7 30 10 4 2 -14 23 -47 47 -74z m-15 75 c0 -5 -4 -10 -10 -10 -5
0 -10 5 -10 10 0 6 5 10 10 10 6 0 10 -4 10 -10z m4156 -61 c27 -31 87 -98
134 -150 l85 -94 -152 140 c-84 76 -153 145 -153 153 0 27 38 6 86 -49z
m-3746 16 c0 -14 -2 -25 -4 -25 -2 0 -11 -3 -20 -6 -13 -5 -13 -1 -3 25 14 37
27 40 27 6z m130 -15 c0 -5 -7 -10 -16 -10 -8 0 -12 5 -9 10 3 6 10 10 16 10
5 0 9 -4 9 -10z m-187 -14 c6 -16 -2 -28 -14 -20 -12 7 -11 34 0 34 5 0 11 -6
14 -14z m-368 -48 c39 -40 43 -48 20 -33 -31 19 -75 64 -75 78 0 12 4 9 55
-45z m526 24 c-18 -6 -46 -35 -54 -55 -3 -9 -14 -17 -24 -17 -17 1 -17 1 0 14
9 7 17 17 17 22 0 14 54 53 65 46 5 -3 3 -8 -4 -10z m-2941 -21 c0 -12 -20
-25 -27 -18 -7 7 6 27 18 27 5 0 9 -4 9 -9z m2392 -36 c16 -14 25 -25 20 -25
-5 0 -15 7 -22 15 -7 8 -23 15 -36 15 -13 0 -24 5 -24 10 0 18 32 10 62 -15z
m588 15 c0 -5 -7 -10 -15 -10 -8 0 -15 5 -15 10 0 6 7 10 15 10 8 0 15 -4 15
-10z m-2980 -20 c0 -5 -7 -7 -15 -4 -8 4 -15 8 -15 10 0 2 7 4 15 4 8 0 15 -4
15 -10z m3910 -16 c0 -8 -5 -12 -10 -9 -6 4 -8 11 -5 16 9 14 15 11 15 -7z
m-5616 -12 c2 -4 -13 -6 -35 -4 -21 2 -39 6 -39 8 0 7 69 4 74 -4z m450 -181
c102 -101 186 -185 186 -187 0 -19 -36 11 -109 89 -47 50 -129 137 -181 192
-52 55 -92 98 -88 95 4 -3 90 -88 192 -189z m3614 172 c-10 -2 -18 -8 -18 -13
0 -5 -7 -7 -15 -4 -27 11 -16 24 18 23 17 -1 24 -3 15 -6z m63 -14 c-14 -5
-31 -15 -38 -21 -8 -6 -13 -6 -13 -1 0 12 38 32 60 32 8 0 4 -5 -9 -10z m507
-47 c2 -7 -3 -12 -10 -12 -8 0 -15 7 -15 15 0 18 19 15 25 -3z m1052 8 c0 -5
-4 -10 -10 -10 -5 0 -10 5 -10 10 0 6 5 10 10 10 6 0 10 -4 10 -10z m2340 0
c0 -5 -7 -10 -15 -10 -8 0 -15 5 -15 10 0 6 7 10 15 10 8 0 15 -4 15 -10z
m-3966 -52 c-3 -5 -13 -8 -22 -8 -15 0 -15 2 -2 11 11 8 12 12 2 16 -6 2 -9 9
-6 14 3 6 12 2 19 -8 7 -10 11 -21 9 -25z m501 32 c-3 -5 -11 -10 -16 -10 -6
0 -7 5 -4 10 3 6 11 10 16 10 6 0 7 -4 4 -10z m3719 2 c2 -4 1 -14 -4 -22 -7
-11 -12 -12 -21 -3 -6 6 -8 16 -5 22 8 13 23 14 30 3z m-4152 -22 l33 -20 -27
0 c-18 0 -28 5 -28 14 0 8 -6 17 -12 19 -7 3 -10 6 -6 6 4 1 22 -8 40 -19z
m563 10 c-4 -6 -1 -18 6 -26 17 -21 8 -25 -21 -9 -14 8 -20 14 -13 15 7 0 10
7 7 15 -4 10 0 15 11 15 9 0 13 -5 10 -10z m3095 0 c0 -5 -5 -10 -11 -10 -5 0
-7 5 -4 10 3 6 8 10 11 10 2 0 4 -4 4 -10z m-5135 -20 c3 -5 1 -10 -4 -10 -6
0 -11 5 -11 10 0 6 2 10 4 10 3 0 8 -4 11 -10z m1963 -1 c27 0 27 0 4 -10 -15
-6 -30 -5 -43 1 -23 13 -25 25 -3 16 9 -3 28 -6 42 -7z m-4303 -199 c111 -6
111 -23 0 -21 l-80 1 -87 93 c-48 50 -88 95 -88 99 0 3 37 -33 83 -80 l82 -87
90 -5z m600 160 c-3 -5 -10 -10 -16 -10 -5 0 -9 5 -9 10 0 6 7 10 16 10 8 0
12 -4 9 -10z m3333 -32 c-16 -24 -32 -25 -37 -2 -2 12 2 15 13 11 10 -4 16 -1
16 9 0 8 5 12 11 9 7 -5 6 -13 -3 -27z m244 8 c-2 -9 2 -16 8 -16 5 0 10 5 10
11 0 5 5 7 11 3 15 -9 -6 -28 -24 -21 -17 7 -31 50 -14 44 7 -2 11 -11 9 -21z
m2258 14 c0 -5 -5 -10 -11 -10 -5 0 -7 5 -4 10 3 6 8 10 11 10 2 0 4 -4 4 -10z
m1665 -10 c3 -5 2 -10 -4 -10 -5 0 -13 5 -16 10 -3 6 -2 10 4 10 5 0 13 -4 16
-10z m-7650 -50 c3 -5 2 -10 -4 -10 -5 0 -13 5 -16 10 -3 6 -2 10 4 10 5 0 13
-4 16 -10z m65 -32 c0 -5 -4 -7 -9 -4 -5 4 -11 1 -13 -6 -2 -6 -10 -8 -17 -4
-9 6 -9 11 -1 21 12 15 40 10 40 -7z m5830 -3 c10 -12 10 -15 -4 -15 -9 0 -16
7 -16 15 0 8 2 15 4 15 2 0 9 -7 16 -15z m1420 -5 c0 -5 -7 -10 -15 -10 -8 0
-15 5 -15 10 0 6 7 10 15 10 8 0 15 -4 15 -10z m-1450 -10 c0 -5 -2 -10 -4
-10 -3 0 -8 5 -11 10 -3 6 -1 10 4 10 6 0 11 -4 11 -10z m970 -4 c0 -3 -4 -8
-10 -11 -5 -3 -10 -1 -10 4 0 6 5 11 10 11 6 0 10 -2 10 -4z m-985 -32 c-9 -9
-19 -13 -23 -10 -3 4 0 11 8 16 24 15 33 11 15 -6z m1779 -29 c3 -9 0 -15 -9
-15 -16 0 -27 14 -18 24 10 10 21 7 27 -9z m-5851 -10 c4 -8 3 -16 -1 -19 -4
-3 -9 4 -9 15 -2 23 3 25 10 4z m4962 -5 c3 -5 1 -10 -4 -10 -6 0 -11 5 -11
10 0 6 2 10 4 10 3 0 8 -4 11 -10z m-935 -24 c0 -17 -14 -29 -23 -20 -8 8 3
34 14 34 5 0 9 -6 9 -14z m-1843 -16 c15 -9 14 -10 -7 -4 -14 3 -27 6 -30 6
-100 1 -104 -4 -38 -53 23 -16 37 -29 33 -29 -4 0 -24 12 -44 28 -19 15 -50
36 -68 47 l-33 20 85 -2 c46 -1 92 -7 102 -13z m-697 6 c0 -2 -7 -6 -15 -10
-8 -3 -15 -1 -15 4 0 6 7 10 15 10 8 0 15 -2 15 -4z m2474 -70 c-10 -8 -21
-12 -24 -10 -5 6 21 24 34 24 6 0 1 -6 -10 -14z m-6177 -18 c-3 -8 -6 -5 -6 6
-1 11 2 17 5 13 3 -3 4 -12 1 -19z m3188 12 c3 -5 -1 -10 -9 -10 -9 0 -16 5
-16 10 0 6 4 10 9 10 6 0 13 -4 16 -10z m-3010 -20 c3 -5 1 -10 -4 -10 -6 0
-11 5 -11 10 0 6 2 10 4 10 3 0 8 -4 11 -10z m6155 -20 c0 -5 -4 -10 -10 -10
-5 0 -10 5 -10 10 0 6 5 10 10 10 6 0 10 -4 10 -10z m-5954 -21 c3 -6 2 -15
-2 -19 -12 -12 -38 5 -30 19 9 14 23 14 32 0z m2505 -18 c-11 -7 -7 -10 15
-14 l29 -4 -32 -2 c-31 -1 -41 7 -26 22 3 4 11 7 17 7 6 0 5 -4 -3 -9z m112 2
c-7 -2 -21 -2 -30 0 -10 3 -4 5 12 5 17 0 24 -2 18 -5z m1237 -13 c0 -5 -2
-10 -4 -10 -3 0 -8 5 -11 10 -3 6 -1 10 4 10 6 0 11 -4 11 -10z m-4110 -20 c0
-5 -4 -10 -10 -10 -5 0 -10 5 -10 10 0 6 5 10 10 10 6 0 10 -4 10 -10z m2590
-31 c0 -5 -7 -9 -15 -9 -15 0 -20 12 -9 23 8 8 24 -1 24 -14z m167 15 c-3 -3
-12 -4 -19 -1 -8 3 -5 6 6 6 11 1 17 -2 13 -5z m1287 -20 c9 -24 2 -26 -12 -4
-7 11 -8 20 -3 20 5 0 12 -7 15 -16z m1751 -34 c3 -5 1 -10 -4 -10 -6 0 -11 5
-11 10 0 6 2 10 4 10 3 0 8 -4 11 -10z m-5765 -15 c0 -8 -4 -15 -10 -15 -5 0
-10 7 -10 15 0 8 5 15 10 15 6 0 10 -7 10 -15z m-1015 -25 c0 -29 -34 -40 -54
-17 -18 23 -2 49 28 45 20 -2 26 -8 26 -28z m1585 20 c0 -5 -4 -10 -10 -10 -5
0 -10 5 -10 10 0 6 5 10 10 10 6 0 10 -4 10 -10z m5157 -16 c-3 -3 -12 -4 -19
-1 -8 3 -5 6 6 6 11 1 17 -2 13 -5z m-6111 -41 c-10 -10 -19 5 -10 18 6 11 8
11 12 0 2 -7 1 -15 -2 -18z m474 -2 c0 -12 -20 -25 -27 -18 -7 7 6 27 18 27 5
0 9 -4 9 -9z m-760 -51 c0 -5 -2 -10 -4 -10 -3 0 -8 5 -11 10 -3 6 -1 10 4 10
6 0 11 -4 11 -10z m2925 0 c3 -5 2 -10 -4 -10 -5 0 -13 5 -16 10 -3 6 -2 10 4
10 5 0 13 -4 16 -10z m-2725 -55 c0 -8 -7 -15 -15 -15 -16 0 -20 12 -8 23 11
12 23 8 23 -8z m940 -29 c0 -2 -7 -9 -15 -16 -13 -11 -14 -10 -9 4 5 14 24 23
24 12z m-747 -37 c-17 -17 -37 -1 -22 17 8 10 15 12 23 4 7 -7 7 -13 -1 -21z
m2532 21 c3 -5 1 -10 -4 -10 -6 0 -11 5 -11 10 0 6 2 10 4 10 3 0 8 -4 11 -10z
m-2325 -28 c0 -13 -12 -22 -22 -16 -10 6 -1 24 13 24 5 0 9 -4 9 -8z m546 -35
c-7 -20 -16 -34 -20 -30 -5 5 -6 -1 -2 -12 7 -25 -15 -70 -34 -70 -23 -1 -30
17 -13 33 8 8 12 24 10 34 -3 11 -1 33 5 50 8 22 15 28 29 25 11 -3 22 -1 25
5 12 20 13 1 0 -35z m-411 -4 c-9 -8 -18 -13 -21 -10 -8 8 19 36 29 30 4 -2 0
-11 -8 -20z m-140 -26 c7 -7 4 -8 -8 -3 -10 3 -25 6 -33 6 -8 0 -14 5 -14 11
0 12 40 2 55 -14z m-335 -7 c0 -5 -2 -10 -4 -10 -3 0 -8 5 -11 10 -3 6 -1 10
4 10 6 0 11 -4 11 -10z m760 -4 c0 -3 -4 -8 -10 -11 -5 -3 -10 -1 -10 4 0 6 5
11 10 11 6 0 10 -2 10 -4z m-1142 -60 c-2 -16 -10 -21 -33 -21 -36 0 -45 27
-19 56 16 18 18 18 36 2 10 -9 18 -26 16 -37z m1194 32 c-7 -7 -12 -8 -12 -2
0 14 12 26 19 19 2 -3 -1 -11 -7 -17z m-422 -10 c0 -13 -23 -5 -28 10 -2 7 2
10 12 6 9 -3 16 -11 16 -16z m-76 -4 c8 -22 8 -24 -8 -24 -18 0 -29 16 -21 30
9 15 22 12 29 -6z m143 10 c-3 -3 -12 -4 -19 -1 -8 3 -5 6 6 6 11 1 17 -2 13
-5z m38 -22 c-3 -3 -11 0 -18 7 -9 10 -8 11 6 5 10 -3 15 -9 12 -12z m3470 -2
c3 -5 -1 -10 -10 -10 -9 0 -13 5 -10 10 3 6 8 10 10 10 2 0 7 -4 10 -10z m93
-53 c3 -22 -1 -27 -18 -27 -26 0 -37 25 -20 45 18 22 34 13 38 -18z m-3318 13
c0 -5 7 -10 15 -10 8 0 15 -4 15 -10 0 -11 -6 -12 -37 -4 -13 4 -20 11 -16 20
6 16 23 19 23 4z m90 1 c0 -5 -7 -11 -15 -15 -15 -5 -20 5 -8 17 9 10 23 9 23
-2z m-715 -10 c7 -12 -12 -24 -25 -16 -11 7 -4 25 10 25 5 0 11 -4 15 -9z
m750 -21 c3 -5 -1 -10 -9 -10 -9 0 -16 5 -16 10 0 6 4 10 9 10 6 0 13 -4 16
-10z m-152 -47 c-6 -16 -5 -17 12 -3 17 14 18 13 12 -4 -6 -14 -4 -17 8 -12
28 10 16 -28 -15 -49 -16 -11 -30 -24 -30 -29 0 -5 9 -1 20 9 11 10 23 15 27
11 4 -4 1 -11 -7 -16 -13 -8 -12 -10 2 -10 15 0 17 -6 12 -37 -4 -21 -7 -73
-8 -115 -1 -42 -4 -80 -8 -84 -5 -4 -8 -17 -8 -28 0 -15 -3 -17 -8 -8 -13 20
-64 -176 -62 -238 1 -53 -2 -76 -14 -90 -10 -11 -13 -32 -9 -78 4 -42 1 -67
-7 -77 -10 -12 -8 -21 14 -49 14 -19 26 -42 26 -50 0 -9 5 -16 10 -16 6 0 10
-8 10 -18 0 -10 5 -23 11 -29 8 -8 -1 -22 -32 -52 -49 -46 -58 -47 -237 -35
-81 6 -90 9 -82 24 10 19 2 60 -11 60 -5 0 -9 -6 -9 -14 0 -21 -17 -28 -24
-10 -3 8 -2 13 3 10 10 -7 23 22 16 34 -3 5 -1 11 5 15 5 3 10 1 10 -4 0 -14
27 -14 35 -2 3 6 -1 15 -8 22 -20 19 1 56 36 63 15 3 27 11 26 18 -4 31 3 42
11 21 5 -13 14 -23 20 -23 16 0 12 18 -10 40 -11 11 -19 28 -19 38 1 16 2 16
6 0 6 -25 29 -22 36 3 4 14 10 18 18 13 10 -6 10 -9 1 -12 -16 -5 -15 -19 1
-19 16 0 19 27 5 44 -5 6 -28 11 -51 10 -23 0 -42 3 -42 9 0 5 6 8 13 6 17 -4
15 17 -2 24 -8 3 -13 16 -12 30 0 15 6 22 14 19 6 -2 12 3 12 11 0 11 -6 13
-19 9 -16 -5 -20 -1 -19 17 1 13 6 29 11 36 5 6 6 12 2 12 -4 0 0 11 9 25 19
29 20 35 3 35 -7 0 -13 9 -14 20 -1 11 3 20 8 20 6 0 7 -4 4 -10 -3 -5 -1 -10
4 -10 6 0 11 5 11 11 0 6 6 9 14 6 11 -5 13 0 6 23 -6 19 -5 29 2 27 6 -1 12
6 13 16 2 9 0 15 -5 12 -4 -3 -10 2 -14 10 -3 8 -2 14 2 14 24 -4 34 2 24 14
-14 16 -5 28 33 47 16 9 31 25 33 35 2 13 0 16 -5 8 -5 -7 -14 -9 -22 -3 -8 4
-20 6 -28 3 -16 -6 -29 25 -16 38 7 7 15 6 24 -3 15 -15 61 -19 53 -6 -3 4
-12 8 -20 8 -8 0 -13 4 -10 9 3 5 15 7 26 4 26 -7 25 1 -2 27 -12 11 -17 20
-12 20 6 0 16 -6 23 -12 10 -10 15 -10 18 -2 2 7 13 10 23 7 12 -3 20 0 20 6
0 7 5 9 10 6 15 -9 12 5 -5 22 -14 14 -14 17 2 29 15 11 15 15 4 23 -14 9 2
26 17 17 5 -3 15 4 23 16 27 40 41 50 49 37 4 -6 13 -8 19 -4 8 4 4 15 -14 31
-14 13 -23 29 -20 34 11 17 25 11 18 -7z m1353 -4 c10 -16 -17 -29 -31 -16
-10 9 -10 14 -1 19 16 11 24 10 32 -3z m1148 -50 c-3 -5 -10 -7 -15 -3 -5 3
-7 10 -3 15 3 5 10 7 15 3 5 -3 7 -10 3 -15z m-2369 -9 c-3 -5 -11 -10 -16
-10 -6 0 -7 5 -4 10 3 6 11 10 16 10 6 0 7 -4 4 -10z m-185 -4 c0 -3 -4 -8
-10 -11 -5 -3 -10 -1 -10 4 0 6 5 11 10 11 6 0 10 -2 10 -4z m1970 -10 c0 -11
-19 -15 -25 -6 -3 5 1 10 9 10 9 0 16 -2 16 -4z m1327 -118 c-2 -13 -4 -5 -4
17 -1 22 1 32 4 23 2 -10 2 -28 0 -40z m-1047 17 c0 -8 -4 -15 -9 -15 -13 0
-22 16 -14 24 11 11 23 6 23 -9z m1047 -67 c-3 -8 -6 -5 -6 6 -1 11 2 17 5 13
3 -3 4 -12 1 -19z m-3442 -78 c3 -5 1 -10 -4 -10 -6 0 -11 5 -11 10 0 6 2 10
4 10 3 0 8 -4 11 -10z m3522 -12 c-3 -8 -6 -5 -6 6 -1 11 2 17 5 13 3 -3 4
-12 1 -19z m-20 -35 c-3 -10 -5 -4 -5 12 0 17 2 24 5 18 2 -7 2 -21 0 -30z
m-1387 7 c0 -5 -4 -10 -10 -10 -5 0 -10 5 -10 10 0 6 5 10 10 10 6 0 10 -4 10
-10z m1367 -37 c-3 -10 -5 -2 -5 17 0 19 2 27 5 18 2 -10 2 -26 0 -35z m1013
3 c0 -3 -4 -8 -10 -11 -5 -3 -10 -1 -10 4 0 6 5 11 10 11 6 0 10 -2 10 -4z
m-2475 -45 c3 -5 1 -12 -5 -16 -5 -3 -10 1 -10 9 0 18 6 21 15 7z m1155 -160
c-11 -23 -25 -41 -31 -41 -7 0 -5 9 5 23 9 12 21 32 28 45 6 12 13 20 15 18 3
-2 -5 -22 -17 -45z m-685 -51 c11 -17 -5 -32 -21 -19 -7 6 -11 15 -8 20 7 12
21 11 29 -1z m673 -78 c-13 -16 -52 -38 -46 -25 3 4 7 15 10 23 3 9 15 16 26
16 16 0 18 -3 10 -14z m-3314 -44 c-3 -4 -9 -8 -15 -8 -5 0 -9 4 -9 8 0 5 7 9
15 9 8 0 12 -4 9 -9z m56 -63 c0 -8 -4 -15 -10 -15 -5 0 -7 7 -4 15 4 8 8 15
10 15 2 0 4 -7 4 -15z m-75 -65 c3 -5 1 -10 -4 -10 -6 0 -11 5 -11 10 0 6 2
10 4 10 3 0 8 -4 11 -10z m2930 -30 c3 -5 1 -10 -4 -10 -6 0 -11 5 -11 10 0 6
2 10 4 10 3 0 8 -4 11 -10z m615 -37 c-11 -17 -11 -17 -6 0 3 10 6 24 7 30 0
9 2 9 5 0 3 -7 0 -20 -6 -30z m137 15 c-3 -8 -6 -5 -6 6 -1 11 2 17 5 13 3 -3
4 -12 1 -19z m-1227 -48 c0 -5 -4 -10 -10 -10 -5 0 -10 5 -10 10 0 6 5 10 10
10 6 0 10 -4 10 -10z m218 -105 c-7 -7 -219 -8 -226 -1 -3 4 48 6 113 6 65 0
116 -2 113 -5z m3285 -2 c-7 -2 -21 -2 -30 0 -10 3 -4 5 12 5 17 0 24 -2 18
-5z m44 1 c-3 -3 -12 -4 -19 -1 -8 3 -5 6 6 6 11 1 17 -2 13 -5z m2472 -2101
c29 -81 123 -173 192 -188 39 -9 37 -18 -8 -34 -81 -29 -173 -123 -188 -192
-9 -40 -20 -36 -33 10 -22 72 -124 171 -193 186 -39 9 -37 18 9 34 80 29 172
123 187 192 9 39 18 37 34 -8z"/>
<path d="M1966 9964 c-23 -23 -20 -30 4 -9 11 10 20 20 20 22 0 7 -9 2 -24
-13z"/>
<path d="M9335 6980 c-3 -5 -1 -10 4 -10 6 0 11 5 11 10 0 6 -2 10 -4 10 -3 0
-8 -4 -11 -10z"/>
<path d="M9330 6956 c0 -2 7 -6 15 -10 8 -3 15 -1 15 4 0 6 -7 10 -15 10 -8 0
-15 -2 -15 -4z"/>
<path d="M4136 6495 c4 -8 8 -15 10 -15 2 0 4 7 4 15 0 8 -4 15 -10 15 -5 0
-7 -7 -4 -15z"/>
<path d="M4177 6400 c7 -25 23 -37 23 -17 0 8 -6 20 -14 26 -12 10 -13 8 -9
-9z"/>
<path d="M9196 6391 c-3 -4 1 -17 10 -27 14 -18 15 -18 5 2 -6 12 -7 24 -4 28
3 3 4 6 0 6 -3 0 -8 -4 -11 -9z"/>
<path d="M4260 6359 c0 -20 6 -52 14 -71 16 -37 46 -69 46 -49 0 6 -4 11 -8
11 -11 0 -32 60 -32 91 0 13 -5 31 -10 39 -7 11 -10 6 -10 -21z"/>
<path d="M9120 6270 c0 -5 5 -10 11 -10 5 0 7 5 4 10 -3 6 -8 10 -11 10 -2 0
-4 -4 -4 -10z"/>
<path d="M9116 6224 c-9 -22 -8 -24 9 -24 8 0 15 9 15 20 0 24 -15 27 -24 4z"/>
<path d="M7790 6010 c-91 -81 -317 -273 -356 -303 -19 -15 -22 -22 -14 -38 8
-15 7 -21 -5 -25 -8 -3 -13 -10 -10 -14 3 -5 -8 -5 -25 0 -29 8 -30 7 -30 -23
0 -24 3 -28 12 -19 7 7 20 12 30 12 18 0 18 -1 -1 -21 -11 -12 -24 -18 -30
-14 -7 4 -11 -8 -11 -33 0 -39 1 -40 24 -29 23 11 23 11 3 27 -18 15 -18 17
-4 23 10 4 17 1 17 -6 0 -8 4 -6 10 3 8 13 10 12 10 -3 0 -11 5 -15 11 -11 6
3 15 1 19 -6 5 -7 8 -2 8 14 0 20 -6 26 -21 26 -26 0 -18 8 13 13 13 2 26 9
28 15 2 7 -3 10 -11 6 -8 -3 -18 1 -23 8 -4 7 -4 10 1 6 4 -4 13 -3 20 2 8 7
15 2 23 -15 9 -20 9 -27 -1 -31 -7 -2 -13 -14 -14 -25 -2 -21 -1 -21 13 -3 9
11 13 12 9 4 -4 -8 6 -1 20 15 15 17 25 23 23 15 -5 -16 14 -40 32 -40 6 0 9
-4 6 -8 -2 -4 5 -14 16 -21 18 -11 20 -11 15 3 -5 12 -1 14 23 9 18 -3 30 -1
30 5 0 6 13 10 30 10 28 -1 60 16 60 32 0 5 -9 6 -20 3 -18 -5 -20 -1 -18 26
2 27 6 31 31 31 22 0 28 -4 23 -15 -3 -9 0 -15 9 -15 12 0 12 5 3 25 -6 14
-15 25 -20 25 -5 0 -16 7 -24 15 -31 30 12 79 58 67 16 -4 23 -20 19 -44 -3
-20 43 1 60 28 18 29 19 48 17 200 l-3 169 -85 -75z"/>
<path d="M9060 6050 c0 -5 5 -10 11 -10 5 0 7 5 4 10 -3 6 -8 10 -11 10 -2 0
-4 -4 -4 -10z"/>
<path d="M9110 6030 c0 -5 5 -10 11 -10 5 0 7 5 4 10 -3 6 -8 10 -11 10 -2 0
-4 -4 -4 -10z"/>
<path d="M9021 6014 c0 -11 3 -14 6 -6 3 7 2 16 -1 19 -3 4 -6 -2 -5 -13z"/>
<path d="M8849 5808 c-1 -13 0 -33 1 -45 1 -12 -3 -30 -9 -40 -5 -10 -12 -50
-16 -88 -4 -39 -9 -73 -11 -76 -2 -4 3 -10 12 -13 8 -3 12 -2 9 4 -3 6 1 13 9
16 9 3 16 12 16 20 0 8 4 14 9 14 13 0 21 39 9 46 -7 4 -6 9 2 14 7 4 9 16 5
29 -3 12 -11 19 -16 16 -5 -4 -9 -2 -9 4 0 15 23 26 28 13 5 -16 22 -5 22 14
0 8 -5 12 -11 8 -6 -4 -9 1 -7 13 3 22 -20 73 -34 73 -4 0 -8 -10 -9 -22z m21
-188 c0 -5 -5 -10 -11 -10 -5 0 -7 5 -4 10 3 6 8 10 11 10 2 0 4 -4 4 -10z"/>
<path d="M5715 5700 c4 -6 9 -23 11 -38 3 -15 11 -34 19 -42 7 -8 13 -17 13
-20 -3 -16 15 -50 26 -50 7 0 18 -11 24 -25 6 -14 15 -25 19 -24 5 1 17 1 28
0 17 -1 18 -3 5 -11 -13 -9 -10 -14 15 -35 35 -29 68 -34 58 -9 -4 12 -2 15 8
12 15 -5 19 -30 6 -39 -11 -8 128 -51 153 -47 13 2 -5 16 -58 43 -42 22 -86
48 -96 58 -12 10 -28 15 -40 11 -15 -4 -17 -3 -8 4 11 7 1 22 -40 65 -30 30
-72 78 -93 106 -22 28 -43 51 -48 51 -4 0 -5 -5 -2 -10z"/>
<path d="M7862 5690 c-10 -17 -10 -20 3 -20 8 0 15 9 15 20 0 11 -1 20 -3 20
-1 0 -8 -9 -15 -20z"/>
<path d="M4675 5615 c-22 -19 -35 -35 -29 -35 5 0 25 16 44 35 43 45 36 45
-15 0z"/>
<path d="M7840 5630 c0 -5 7 -7 15 -4 8 4 15 8 15 10 0 2 -7 4 -15 4 -8 0 -15
-4 -15 -10z"/>
<path d="M7817 5609 c7 -7 15 -10 18 -7 3 3 -2 9 -12 12 -14 6 -15 5 -6 -5z"/>
<path d="M7860 5610 c-8 -5 -11 -12 -7 -16 4 -4 13 -2 19 4 15 15 7 24 -12 12z"/>
<path d="M7320 5588 c0 -19 -2 -20 -10 -8 -6 10 -10 11 -10 3 0 -7 -6 -13 -13
-13 -15 0 -60 -44 -52 -52 10 -10 65 5 65 18 0 8 5 14 11 14 7 0 6 -8 -4 -23
-13 -21 -13 -23 3 -23 13 0 17 11 19 53 1 29 0 53 -3 53 -4 0 -6 -10 -6 -22z"/>
<path d="M7802 5570 c8 -13 15 -16 19 -8 10 15 2 28 -17 28 -12 0 -12 -4 -2
-20z"/>
<path d="M7755 5510 c-3 -5 -1 -10 4 -10 6 0 11 5 11 10 0 6 -2 10 -4 10 -3 0
-8 -4 -11 -10z"/>
<path d="M7615 5491 c3 -5 -1 -11 -7 -14 -7 -2 -10 -7 -7 -11 3 -3 14 0 24 7
16 13 17 14 1 20 -9 4 -15 3 -11 -2z"/>
<path d="M7790 5490 c-8 -5 -10 -10 -5 -11 6 0 20 -2 33 -5 21 -4 22 -2 8 11
-17 18 -17 18 -36 5z"/>
<path d="M5800 5449 c0 -9 7 -20 16 -23 24 -9 36 -7 29 4 -4 6 -10 8 -15 5 -5
-3 -13 3 -19 12 -9 16 -10 16 -11 2z"/>
<path d="M5849 5397 c15 -19 41 -23 41 -7 0 6 -4 10 -9 10 -5 0 -18 3 -28 7
-16 6 -16 5 -4 -10z"/>
<path d="M7834 5395 c-18 -14 -18 -14 4 -8 12 3 22 9 22 14 0 12 -3 11 -26 -6z"/>
<path d="M7713 5378 c-21 -10 -25 -16 -22 -34 0 -4 -5 -11 -13 -16 -10 -7 -10
-11 0 -15 6 -2 12 -9 12 -14 0 -6 -4 -7 -10 -4 -5 3 -10 0 -10 -7 0 -9 -3 -9
-10 2 -6 9 -10 10 -10 3 0 -18 -38 -50 -72 -62 -24 -9 -29 -8 -25 3 7 16 -24
17 -40 0 -23 -23 -14 -33 22 -27 20 3 35 1 35 -4 0 -5 -16 -9 -37 -9 -26 1
-38 7 -44 21 -6 19 -7 19 -14 2 -5 -13 -2 -24 11 -36 10 -10 103 -95 207 -190
l187 -173 0 180 0 179 -26 19 c-14 10 -32 25 -39 31 -8 7 -22 10 -32 6 -14 -5
-15 -3 -6 7 9 9 8 22 -3 52 -8 22 -12 44 -9 48 3 5 -1 15 -9 23 -8 8 -12 17
-9 21 10 9 -9 6 -34 -6z"/>
<path d="M5935 5320 c44 -45 50 -48 62 -32 8 9 11 11 7 3 -5 -10 -3 -12 7 -5
8 4 41 7 75 6 47 -2 63 1 68 13 6 17 -19 21 -30 4 -4 -6 -9 -7 -13 -2 -9 14
-122 45 -158 44 -18 -1 -33 4 -33 9 0 6 -8 10 -17 10 -12 0 -2 -15 32 -50z
m70 0 c-3 -5 -12 -10 -18 -10 -7 0 -6 4 3 10 19 12 23 12 15 0z"/>
<path d="M6345 5362 c-33 -2 -64 -7 -69 -12 -8 -8 142 -3 152 5 8 7 -29 10
-83 7z"/>
<path d="M6390 5330 c0 -5 9 -10 20 -10 11 0 20 5 20 10 0 6 -9 10 -20 10 -11
0 -20 -4 -20 -10z"/>
<path d="M6458 5333 c7 -3 16 -2 19 1 4 3 -2 6 -13 5 -11 0 -14 -3 -6 -6z"/>
<path d="M8797 5323 c-4 -3 -7 -15 -7 -25 0 -16 6 -18 31 -14 40 6 49 15 21
23 -12 3 -19 9 -16 14 6 10 -19 12 -29 2z"/>
<path d="M6193 5313 c-7 -3 -13 -9 -13 -15 0 -5 6 -8 13 -5 6 2 18 -3 25 -12
11 -14 13 -14 27 3 8 10 12 24 8 29 -3 6 -10 1 -14 -11 -5 -12 -11 -22 -15
-22 -3 0 -4 6 -1 14 6 16 -11 26 -30 19z"/>
<path d="M6310 5300 c0 -13 11 -13 30 0 12 8 11 10 -7 10 -13 0 -23 -4 -23
-10z"/>
<path d="M6800 5230 c0 -5 6 -10 14 -10 8 0 18 5 21 10 3 6 -3 10 -14 10 -12
0 -21 -4 -21 -10z"/>
<path d="M8770 5125 c0 -8 4 -15 8 -15 5 0 9 7 9 15 0 8 -4 15 -9 15 -4 0 -8
-7 -8 -15z"/>
<path d="M2249 5093 c-100 -53 -379 -289 -379 -321 0 -7 7 -12 15 -12 8 0 15
-4 15 -9 0 -5 14 -12 30 -16 17 -4 30 -11 30 -17 0 -6 9 -8 20 -5 11 3 20 2
20 -3 0 -14 33 -21 41 -9 9 16 30 2 23 -16 -4 -10 0 -12 15 -8 26 7 35 19 21
28 -5 3 -10 11 -10 17 0 6 7 5 17 -3 14 -12 16 -12 8 0 -6 11 -4 13 11 7 10
-4 30 -10 44 -12 20 -3 22 -2 10 6 -13 9 -11 13 10 29 13 11 29 17 34 14 5 -4
7 1 3 10 -4 10 -2 16 6 14 7 -1 11 6 11 15 -1 9 4 19 12 22 7 3 11 0 8 -7 -2
-7 6 -13 22 -13 l26 -2 -23 24 c-12 13 -17 24 -11 24 6 0 14 -5 18 -12 5 -7
10 -3 16 13 7 19 11 21 18 9 5 -8 10 -10 10 -4 0 5 -5 15 -11 21 -12 12 -4 33
11 33 5 0 6 -8 3 -17 -6 -16 -5 -16 10 -4 9 7 17 20 17 28 0 8 6 21 14 29 8 8
13 23 11 34 -3 16 -1 18 14 11 9 -5 21 -7 27 -3 12 9 14 42 3 42 -5 0 -9 5 -9
11 0 6 7 9 15 5 8 -3 16 -2 16 2 6 33 4 49 -5 50 -6 0 -47 3 -91 7 -68 6 -86
4 -116 -12z m191 -23 c0 -5 -2 -10 -4 -10 -3 0 -8 5 -11 10 -3 6 -1 10 4 10 6
0 11 -4 11 -10z m-75 -50 c3 -5 1 -10 -4 -10 -6 0 -11 5 -11 10 0 6 2 10 4 10
3 0 8 -4 11 -10z m65 2 c0 -13 -12 -22 -22 -16 -10 6 -1 24 13 24 5 0 9 -4 9
-8z m-60 -62 c0 -5 -7 -7 -15 -4 -8 4 -12 10 -9 15 6 11 24 2 24 -11z m-220
-220 c0 -5 -2 -10 -4 -10 -3 0 -8 5 -11 10 -3 6 -1 10 4 10 6 0 11 -4 11 -10z"/>
<path d="M2510 5086 c0 -2 7 -9 15 -16 13 -11 14 -10 9 4 -5 14 -24 23 -24 12z"/>
<path d="M7530 5000 c0 -5 5 -10 10 -10 6 0 10 5 10 10 0 6 -4 10 -10 10 -5 0
-10 -4 -10 -10z"/>
<path d="M8485 5000 c-19 -8 -19 -9 3 -9 12 -1 22 4 22 9 0 6 -1 10 -2 9 -2 0
-12 -4 -23 -9z"/>
<path d="M2396 4925 c-3 -8 -1 -15 4 -15 6 0 10 7 10 15 0 8 -2 15 -4 15 -2 0
-6 -7 -10 -15z"/>
<path d="M8380 4900 c0 -5 5 -10 11 -10 5 0 7 5 4 10 -3 6 -8 10 -11 10 -2 0
-4 -4 -4 -10z"/>
<path d="M2980 4752 l0 -112 65 25 c103 39 101 33 37 101 -31 33 -67 69 -79
79 l-23 18 0 -111z"/>
<path d="M1605 4780 c3 -5 10 -10 16 -10 5 0 9 5 9 10 0 6 -7 10 -16 10 -8 0
-12 -4 -9 -10z"/>
<path d="M1691 4771 c13 -11 26 -18 28 -15 7 7 -21 34 -36 34 -10 0 -8 -6 8
-19z"/>
<path d="M1725 4780 c3 -5 8 -10 11 -10 2 0 4 5 4 10 0 6 -5 10 -11 10 -5 0
-7 -4 -4 -10z"/>
<path d="M2250 4780 c0 -5 5 -10 10 -10 6 0 10 5 10 10 0 6 -4 10 -10 10 -5 0
-10 -4 -10 -10z"/>
<path d="M1770 4771 c0 -6 4 -12 8 -15 5 -3 9 1 9 9 0 8 -4 15 -9 15 -4 0 -8
-4 -8 -9z"/>
<path d="M2200 4730 c0 -11 2 -20 4 -20 2 0 6 9 9 20 3 11 1 20 -4 20 -5 0 -9
-9 -9 -20z"/>
<path d="M1200 4730 c0 -5 7 -10 16 -10 8 0 12 5 9 10 -3 6 -10 10 -16 10 -5
0 -9 -4 -9 -10z"/>
<path d="M1775 4700 c3 -5 8 -10 11 -10 2 0 4 5 4 10 0 6 -5 10 -11 10 -5 0
-7 -4 -4 -10z"/>
<path d="M3290 4703 c-100 -15 -95 -13 -74 -34 18 -18 23 -18 114 -3 52 8 111
18 130 21 l35 6 -45 8 c-47 8 -118 9 -160 2z"/>
<path d="M1815 4690 c3 -5 8 -10 11 -10 2 0 4 5 4 10 0 6 -5 10 -11 10 -5 0
-7 -4 -4 -10z"/>
<path d="M8170 4692 c0 -5 7 -9 15 -9 8 0 12 4 9 9 -3 4 -9 8 -15 8 -5 0 -9
-4 -9 -8z"/>
<path d="M1935 4682 c6 -6 24 -13 40 -17 21 -4 25 -3 15 3 -24 15 -67 26 -55
14z"/>
<path d="M7220 4665 c-9 -10 -9 -15 -1 -15 6 0 11 4 11 9 0 5 8 12 18 14 14 4
14 5 1 6 -9 0 -22 -6 -29 -14z"/>
<path d="M3090 4648 c-30 -10 -60 -25 -66 -33 -6 -8 -16 -15 -22 -15 -6 0 -14
-5 -17 -10 -8 -13 17 -7 140 31 64 20 81 28 58 28 -17 1 -33 4 -35 9 -1 4 -28
-1 -58 -10z m30 -13 c-14 -8 -32 -14 -40 -14 -8 0 -1 7 15 14 39 18 57 18 25
0z"/>
<path d="M3324 4652 c-48 -7 -66 -14 -58 -21 5 -5 45 -3 89 4 76 11 78 12 34
16 -25 2 -54 3 -65 1z"/>
<path d="M3400 4624 c-52 -7 -99 -13 -105 -14 -17 -1 57 -60 75 -60 11 0 17
-7 16 -17 -2 -35 32 -22 90 32 32 30 64 55 69 55 6 0 3 5 -5 10 -18 12 -19 12
-140 -6z m55 -14 c-11 -5 -27 -9 -35 -9 -13 -1 -13 0 0 9 8 5 24 9 35 9 l20 0
-20 -9z"/>
<path d="M4068 4633 c7 -3 16 -2 19 1 4 3 -2 6 -13 5 -11 0 -14 -3 -6 -6z"/>
<path d="M3650 4622 c0 -13 35 -22 85 -22 28 1 35 3 25 9 -24 14 -110 25 -110
13z"/>
<path d="M7167 4613 c-4 -3 -7 -11 -7 -17 0 -6 5 -5 12 2 6 6 9 14 7 17 -3 3
-9 2 -12 -2z"/>
<path d="M4208 4603 c7 -3 16 -2 19 1 4 3 -2 6 -13 5 -11 0 -14 -3 -6 -6z"/>
<path d="M3110 4555 c-63 -19 -118 -35 -122 -35 -5 0 -8 -21 -8 -46 0 -36 3
-45 14 -41 8 3 17 1 20 -6 2 -7 5 -5 5 4 1 16 66 37 78 25 13 -12 -20 -36 -42
-30 -16 4 -26 0 -34 -13 -6 -10 -11 -13 -11 -7 0 15 -30 13 -30 -2 0 -7 6 -15
13 -17 9 -4 9 -7 -1 -15 -9 -6 -12 -39 -10 -126 l3 -117 115 102 c179 158 222
202 207 212 -8 6 -6 7 7 3 18 -6 56 18 56 36 0 12 -27 10 -51 -4 -17 -11 -22
-10 -31 6 -7 12 -13 14 -17 7 -4 -6 -16 -12 -26 -14 -45 -9 -80 -21 -86 -30
-4 -5 -15 -4 -29 3 l-22 12 27 14 c15 8 31 11 36 8 5 -3 9 2 9 11 0 9 5 13 10
10 6 -3 13 1 16 9 3 9 10 16 16 16 5 0 6 -4 3 -10 -3 -5 -1 -10 5 -10 6 0 13
7 16 15 4 8 13 15 21 15 9 0 11 -5 7 -12 -5 -9 -2 -9 9 1 18 14 23 26 8 16 -5
-3 -11 5 -13 17 -5 34 -37 32 -168 -7z m178 -97 c-3 -7 -15 -14 -29 -15 -13
-1 -18 0 -11 3 6 3 10 10 6 15 -3 5 4 9 16 9 13 0 20 -5 18 -12z m-108 -48 c0
-5 -9 -10 -21 -10 -11 0 -17 5 -14 10 3 6 13 10 21 10 8 0 14 -4 14 -10z"/>
<path d="M7081 4574 c0 -11 3 -14 6 -6 3 7 2 16 -1 19 -3 4 -6 -2 -5 -13z"/>
<path d="M4565 4450 c11 -14 22 -27 25 -30 29 -28 111 -151 144 -215 14 -27
16 -28 16 -7 0 12 -4 22 -9 22 -5 0 -12 19 -15 43 -5 31 -18 56 -44 84 -46 51
-144 137 -117 103z"/>
<path d="M4750 4135 c0 -9 6 -12 15 -9 8 4 12 10 9 15 -8 14 -24 10 -24 -6z"/>
<path d="M4761 4094 c0 -11 3 -14 6 -6 3 7 2 16 -1 19 -3 4 -6 -2 -5 -13z"/>
<path d="M5330 3523 c8 -3 33 -14 54 -24 22 -10 42 -17 44 -14 6 6 -85 45
-101 44 -7 0 -5 -3 3 -6z"/>
<path d="M5500 3505 c-1 -5 -1 -18 0 -28 1 -14 -3 -17 -18 -13 -12 4 2 -16 34
-49 30 -30 54 -60 54 -65 0 -6 5 -10 10 -10 14 0 -5 37 -38 72 -14 15 -28 44
-32 65 -4 21 -9 34 -10 28z"/>
<path d="M4852 3270 c0 -14 2 -19 5 -12 2 6 2 18 0 25 -3 6 -5 1 -5 -13z"/>
<path d="M3786 6851 c-3 -5 1 -12 10 -15 22 -8 25 -4 9 11 -8 7 -16 9 -19 4z"/>
<path d="M5152 5328 c-18 -18 -14 -73 7 -92 16 -15 20 -15 31 -1 26 31 -11
120 -38 93z"/>
<path d="M5149 4772 c-8 -9 -28 -27 -42 -39 -20 -17 -27 -32 -27 -58 l0 -36
35 27 c19 15 37 36 40 48 2 11 6 33 10 49 6 31 6 31 -16 9z"/>
<path d="M456 4101 c-4 -5 -2 -12 3 -15 5 -4 12 -2 15 3 4 5 2 12 -3 15 -5 4
-12 2 -15 -3z"/>
<path d="M1523 3825 c-10 -11 -9 -13 7 -12 11 1 20 7 20 14 0 17 -12 16 -27
-2z"/>
<path d="M1471 3729 c17 -11 39 -12 39 -1 0 4 -12 8 -27 9 -19 1 -22 -1 -12
-8z"/>
<path d="M1297 3248 c6 -11 31 -10 37 1 3 5 -5 8 -18 7 -13 0 -22 -4 -19 -8z"/>
<path d="M4815 1190 c-3 -5 -2 -10 4 -10 5 0 13 5 16 10 3 6 2 10 -4 10 -5 0
-13 -4 -16 -10z"/>
</g>
</svg>
